<?xml version="1.0" standalone="no"?>
<!DOCTYPE svg PUBLIC "-//W3C//DTD SVG 20010904//EN"
 "http://www.w3.org/TR/2001/REC-SVG-20010904/DTD/svg10.dtd">
<svg version="1.0" xmlns="http://www.w3.org/2000/svg"
 width="500.000000pt" height="500.000000pt" viewBox="0 0 500.000000 500.000000"
 preserveAspectRatio="xMidYMid meet">

<g transform="translate(0.000000,500.000000) scale(0.100000,-0.100000)"
fill="#000000" stroke="none">
<path d="M1670 3840 c0 -6 28 -10 64 -10 36 0 68 5 71 10 4 6 -20 10 -64 10
-41 0 -71 -4 -71 -10z"/>
<path d="M1850 3840 c0 -5 9 -10 19 -10 11 0 23 5 26 10 4 6 -5 10 -19 10 -14
0 -26 -4 -26 -10z"/>
<path d="M3220 3831 c0 -13 29 -35 37 -28 7 8 -15 37 -28 37 -5 0 -9 -4 -9 -9z"/>
<path d="M3305 3820 c-10 -11 -13 -20 -8 -20 13 0 38 29 31 35 -3 3 -13 -4
-23 -15z"/>
<path d="M2600 3780 c-15 -29 -3 -59 26 -66 30 -8 54 11 54 40 0 46 -59 64
-80 26z m63 -12 c7 -21 -4 -38 -23 -38 -23 0 -34 16 -26 35 7 18 43 20 49 3z"/>
<path d="M1670 3780 c0 -5 13 -10 29 -10 17 0 33 5 36 10 4 6 -8 10 -29 10
-20 0 -36 -4 -36 -10z"/>
<path d="M1785 3780 c3 -5 46 -10 95 -10 49 0 92 5 95 10 4 6 -30 10 -95 10
-65 0 -99 -4 -95 -10z"/>
<path d="M3296 3762 c-7 -12 22 -38 31 -28 4 3 0 14 -9 22 -9 10 -18 12 -22 6z"/>
<path d="M3230 3745 c-7 -8 -8 -15 -2 -15 5 0 15 7 22 15 7 8 8 15 2 15 -5 0
-15 -7 -22 -15z"/>
<path d="M1870 3505 c0 -103 4 -165 10 -165 6 0 10 58 10 155 l0 155 155 0
c97 0 155 4 155 10 0 6 -62 10 -165 10 l-165 0 0 -165z"/>
<path d="M2820 3660 c0 -6 58 -10 155 -10 l155 0 0 -155 c0 -97 4 -155 10
-155 6 0 10 62 10 165 l0 165 -165 0 c-103 0 -165 -4 -165 -10z"/>
<path d="M2430 3520 c-12 -8 -11 -10 8 -10 12 0 22 5 22 10 0 13 -11 13 -30 0z"/>
<path d="M2500 3520 c0 -5 9 -10 20 -10 11 0 20 5 20 10 0 6 -9 10 -20 10 -11
0 -20 -4 -20 -10z"/>
<path d="M2583 3517 c5 -15 37 -22 37 -9 0 5 -9 12 -21 15 -13 3 -19 1 -16 -6z"/>
<path d="M2355 3500 c-3 -5 1 -10 9 -10 8 0 18 5 21 10 3 6 -1 10 -9 10 -8 0
-18 -4 -21 -10z"/>
<path d="M2655 3500 c-4 -6 -4 -10 -1 -10 2 0 11 -3 20 -6 9 -3 16 -2 16 4 0
14 -28 23 -35 12z"/>
<path d="M2290 3480 c-20 -12 -5 -24 16 -12 9 5 12 12 7 15 -5 3 -15 2 -23 -3z"/>
<path d="M2725 3460 c3 -5 13 -10 21 -10 8 0 12 5 9 10 -3 6 -13 10 -21 10 -8
0 -12 -4 -9 -10z"/>
<path d="M2219 3434 c-12 -14 -11 -16 5 -13 11 2 21 10 24 17 5 17 -13 15 -29
-4z"/>
<path d="M2790 3431 c0 -5 7 -14 15 -21 12 -10 15 -10 15 3 0 8 -7 17 -15 21
-8 3 -15 2 -15 -3z"/>
<path d="M2165 3389 c-11 -17 1 -21 15 -4 8 9 8 15 2 15 -6 0 -14 -5 -17 -11z"/>
<path d="M2850 3385 c0 -18 19 -40 26 -32 4 4 0 15 -9 24 -9 10 -17 13 -17 8z"/>
<path d="M2116 3334 c-9 -23 -2 -28 13 -10 7 8 8 17 3 20 -6 3 -13 -1 -16 -10z"/>
<path d="M2373 3258 l-123 -72 0 -152 0 -153 118 -70 c64 -38 124 -72 133 -76
9 -3 67 24 143 68 l127 73 1 153 c0 83 -1 153 -3 155 -16 15 -250 146 -261
146 -7 -1 -68 -33 -135 -72z m257 -10 c60 -35 110 -65 110 -68 0 -3 -52 -35
-115 -72 l-115 -66 -115 66 c-74 43 -111 70 -105 76 16 16 204 124 217 125 7
1 62 -27 123 -61z m-244 -155 l114 -67 0 -133 c0 -73 -2 -133 -5 -133 -3 0
-57 30 -120 66 l-115 67 0 133 c0 74 3 134 6 134 3 0 57 -30 120 -67z m373
-67 l2 -133 -114 -67 c-63 -36 -117 -66 -121 -66 -3 0 -6 60 -6 133 l0 133
113 66 c61 37 115 67 118 67 3 1 7 -59 8 -133z"/>
<path d="M2900 3318 c0 -9 5 -20 11 -23 17 -11 20 0 4 21 -13 17 -14 17 -15 2z"/>
<path d="M2077 3274 c-4 -4 -7 -14 -7 -23 0 -11 3 -12 11 -4 6 6 10 16 7 23
-2 6 -7 8 -11 4z"/>
<path d="M2940 3246 c0 -8 5 -18 10 -21 6 -3 10 3 10 14 0 12 -4 21 -10 21 -5
0 -10 -6 -10 -14z"/>
<path d="M1727 3243 c-11 -10 -8 -151 3 -158 6 -4 10 25 10 79 0 86 -1 92 -13
79z"/>
<path d="M2040 3188 c0 -19 2 -20 10 -8 13 19 13 30 0 30 -5 0 -10 -10 -10
-22z"/>
<path d="M2970 3176 c0 -8 5 -18 10 -21 6 -3 10 1 10 9 0 8 -4 18 -10 21 -5 3
-10 -1 -10 -9z"/>
<path d="M2020 3119 c0 -11 5 -17 10 -14 6 3 10 13 10 21 0 8 -4 14 -10 14 -5
0 -10 -9 -10 -21z"/>
<path d="M2987 3114 c-6 -10 9 -42 16 -34 3 3 1 14 -3 24 -3 11 -9 15 -13 10z"/>
<path d="M2010 3045 c0 -8 5 -15 10 -15 6 0 10 7 10 15 0 8 -4 15 -10 15 -5 0
-10 -7 -10 -15z"/>
<path d="M1720 3026 c0 -14 5 -28 10 -31 6 -4 10 7 10 24 0 17 -4 31 -10 31
-5 0 -10 -11 -10 -24z"/>
<path d="M2990 3020 c0 -11 5 -20 10 -20 6 0 10 9 10 20 0 11 -4 20 -10 20 -5
0 -10 -9 -10 -20z"/>
<path d="M2020 2970 c0 -11 4 -20 9 -20 5 0 7 9 4 20 -3 11 -7 20 -9 20 -2 0
-4 -9 -4 -20z"/>
<path d="M2980 2939 c0 -11 5 -17 10 -14 6 3 10 13 10 21 0 8 -4 14 -10 14 -5
0 -10 -9 -10 -21z"/>
<path d="M2030 2896 c0 -8 5 -18 10 -21 6 -3 10 3 10 14 0 12 -4 21 -10 21 -5
0 -10 -6 -10 -14z"/>
<path d="M2967 2876 c-4 -10 -5 -21 -2 -24 9 -9 17 6 13 25 -3 17 -4 17 -11
-1z"/>
<path d="M3323 2810 c0 -47 2 -66 4 -42 2 23 2 61 0 85 -2 23 -4 4 -4 -43z"/>
<path d="M2057 2821 c3 -12 10 -21 15 -21 13 0 6 32 -9 37 -7 3 -9 -3 -6 -16z"/>
<path d="M2937 2814 c-4 -4 -7 -14 -7 -23 0 -11 3 -12 11 -4 6 6 10 16 7 23
-2 6 -7 8 -11 4z"/>
<path d="M2092 2759 c2 -7 10 -15 17 -17 8 -3 12 1 9 9 -2 7 -10 15 -17 17 -8
3 -12 -1 -9 -9z"/>
<path d="M2886 2734 c-4 -10 -1 -14 6 -12 15 5 23 28 10 28 -5 0 -13 -7 -16
-16z"/>
<path d="M1870 2555 l0 -165 165 0 c103 0 165 4 165 10 0 6 -58 10 -155 10
l-155 0 0 155 c0 97 -4 155 -10 155 -6 0 -10 -62 -10 -165z"/>
<path d="M3130 2565 l0 -155 -155 0 c-97 0 -155 -4 -155 -10 0 -6 62 -10 165
-10 l165 0 0 165 c0 103 -4 165 -10 165 -6 0 -10 -58 -10 -155z"/>
<path d="M2142 2699 c2 -7 10 -15 17 -17 8 -3 12 1 9 9 -2 7 -10 15 -17 17 -8
3 -12 -1 -9 -9z"/>
<path d="M3323 2665 c0 -22 2 -30 4 -17 2 12 2 30 0 40 -3 9 -5 -1 -4 -23z"/>
<path d="M2835 2679 c-4 -6 -5 -13 -2 -16 7 -7 27 6 27 18 0 12 -17 12 -25 -2z"/>
<path d="M2200 2652 c0 -12 19 -26 26 -19 2 2 -2 10 -11 17 -9 8 -15 8 -15 2z"/>
<path d="M2777 2633 c-12 -12 -7 -22 8 -17 8 4 15 10 15 15 0 11 -14 12 -23 2z"/>
<path d="M2260 2610 c0 -12 28 -25 36 -17 3 3 -4 10 -15 17 -15 7 -21 7 -21 0z"/>
<path d="M1680 2593 c0 -13 29 -38 35 -31 3 3 -4 13 -15 23 -11 10 -20 13 -20
8z"/>
<path d="M1760 2585 c-7 -9 -10 -18 -7 -22 8 -7 37 15 37 28 0 14 -16 11 -30
-6z"/>
<path d="M2705 2590 c-3 -5 1 -10 9 -10 8 0 18 5 21 10 3 6 -1 10 -9 10 -8 0
-18 -4 -21 -10z"/>
<path d="M2330 2570 c0 -5 9 -10 21 -10 11 0 17 5 14 10 -3 6 -13 10 -21 10
-8 0 -14 -4 -14 -10z"/>
<path d="M2630 2560 c0 -13 11 -13 30 0 12 8 11 10 -7 10 -13 0 -23 -4 -23
-10z"/>
<path d="M2400 2550 c0 -5 9 -10 20 -10 11 0 20 5 20 10 0 6 -9 10 -20 10 -11
0 -20 -4 -20 -10z"/>
<path d="M2560 2550 c-12 -8 -11 -10 8 -10 12 0 22 5 22 10 0 13 -11 13 -30 0z"/>
<path d="M2480 2540 c0 -5 6 -10 14 -10 8 0 18 5 21 10 3 6 -3 10 -14 10 -12
0 -21 -4 -21 -10z"/>
<path d="M1750 2523 c0 -13 29 -38 35 -31 3 3 -4 13 -15 23 -11 10 -20 13 -20
8z"/>
<path d="M1685 2509 c-12 -19 5 -23 22 -6 16 16 16 17 1 17 -9 0 -20 -5 -23
-11z"/>
<path d="M2555 2330 c10 -11 20 -18 23 -15 7 6 -18 35 -31 35 -5 0 -2 -9 8
-20z"/>
<path d="M2630 2335 c-7 -9 -11 -18 -8 -20 3 -3 11 1 18 10 7 9 11 18 8 20 -3
3 -11 -1 -18 -10z"/>
<path d="M2042 2288 c-7 -7 -12 -21 -12 -33 0 -12 5 -26 12 -33 7 -7 21 -12
33 -12 12 0 26 5 33 12 7 7 12 21 12 33 0 12 -5 26 -12 33 -7 7 -21 12 -33 12
-12 0 -26 -5 -33 -12z m53 -33 c0 -30 -39 -27 -43 3 -3 20 0 23 20 20 15 -2
23 -10 23 -23z"/>
<path d="M2998 2283 c28 -2 76 -2 105 0 28 2 5 3 -53 3 -58 0 -81 -1 -52 -3z"/>
<path d="M3208 2283 c12 -2 30 -2 40 0 9 3 -1 5 -23 4 -22 0 -30 -2 -17 -4z"/>
<path d="M2555 2260 c-10 -11 -13 -20 -8 -20 13 0 38 29 31 35 -3 3 -13 -4
-23 -15z"/>
<path d="M2620 2273 c0 -13 29 -38 35 -31 3 3 -4 13 -15 23 -11 10 -20 13 -20
8z"/>
<path d="M3043 2223 c9 -2 25 -2 35 0 9 3 1 5 -18 5 -19 0 -27 -2 -17 -5z"/>
<path d="M3153 2223 c20 -2 54 -2 75 0 20 2 3 4 -38 4 -41 0 -58 -2 -37 -4z"/>
<path d="M3960 1760 c-20 -20 -24 -36 -20 -75 5 -57 95 -81 131 -36 44 54 11
131 -56 131 -22 0 -43 -8 -55 -20z"/>
<path d="M1028 1763 l22 -4 0 -300 c0 -193 4 -299 10 -299 6 0 10 8 10 18 0
49 47 54 109 12 53 -36 95 -45 148 -31 91 25 143 89 151 187 15 180 -117 303
-251 235 l-37 -19 0 104 0 104 -92 -1 c-51 -1 -83 -4 -70 -6z m271 -229 c31
-39 43 -99 39 -189 -4 -94 -29 -155 -72 -170 -22 -7 -30 -5 -49 13 -21 21 -22
33 -25 178 -3 136 -1 158 14 175 25 28 68 24 93 -7z"/>
<path d="M1810 1761 c24 -7 25 -10 28 -109 l3 -103 -30 22 c-43 32 -117 37
-168 10 -70 -35 -103 -101 -103 -206 0 -104 33 -171 100 -205 50 -26 115 -25
163 0 31 17 37 17 37 5 0 -12 17 -15 90 -15 53 0 90 4 90 10 0 6 -11 10 -25
10 l-25 0 0 295 0 295 -92 -1 c-54 -1 -82 -4 -68 -8z m10 -226 c22 -23 22 -29
18 -157 -5 -143 -14 -173 -55 -189 -34 -13 -70 10 -90 58 -17 43 -20 194 -3
238 28 73 87 96 130 50z"/>
<path d="M2670 1761 l25 -7 3 -287 2 -287 -25 0 c-14 0 -25 -4 -25 -10 0 -6
45 -10 115 -10 70 0 115 4 115 10 0 6 -11 10 -25 10 l-25 0 0 295 0 295 -92
-1 c-54 -1 -83 -4 -68 -8z"/>
<path d="M616 1513 c-149 -361 -135 -333 -167 -333 -16 0 -29 -4 -29 -10 0 -6
32 -10 75 -10 75 0 105 16 41 22 l-34 3 26 63 26 62 91 0 91 0 32 -65 32 -65
-25 0 c-14 0 -25 -4 -25 -10 0 -6 47 -10 122 -10 73 0 118 4 113 9 -6 5 -18
11 -28 13 -13 2 -52 76 -131 248 -62 135 -119 246 -127 248 -9 1 -36 -52 -83
-165z m67 -88 c52 -105 52 -105 -36 -105 -41 0 -76 2 -79 5 -7 7 62 175 71
175 4 0 23 -34 44 -75z"/>
<path d="M3075 1581 c-61 -16 -99 -47 -110 -91 -8 -35 27 -80 63 -80 54 0 78
40 62 100 -14 50 -8 60 35 60 52 0 65 -20 65 -105 l0 -73 -67 -12 c-38 -6 -87
-20 -110 -31 -78 -37 -93 -126 -30 -173 39 -29 129 -29 178 0 35 21 36 21 58
3 17 -14 39 -19 80 -19 64 0 97 13 62 25 -27 8 -30 23 -33 185 -3 148 -12 175
-65 199 -34 16 -148 23 -188 12z m123 -279 c4 -74 -14 -112 -54 -112 -55 0
-93 77 -64 130 14 26 60 50 90 47 23 -2 25 -6 28 -65z"/>
<path d="M2060 1570 c0 -5 8 -10 19 -10 17 0 19 -11 23 -147 5 -177 18 -215
82 -244 56 -25 113 -24 169 5 44 22 47 22 47 5 0 -17 9 -19 90 -19 53 0 90 4
90 10 0 6 -9 10 -20 10 -19 0 -20 7 -20 200 l0 200 -90 0 c-53 0 -90 -4 -90
-10 0 -5 9 -10 20 -10 19 0 20 -7 20 -163 0 -158 -1 -164 -23 -185 -31 -29
-87 -29 -113 -1 -17 19 -19 41 -22 195 l-3 174 -90 0 c-53 0 -89 -4 -89 -10z"/>
<path d="M3440 1501 c0 -44 5 -83 10 -86 6 -4 10 6 10 22 0 15 9 42 20 60 27
46 70 65 136 61 l54 -3 -125 -187 c-69 -103 -125 -192 -125 -198 0 -6 72 -10
200 -10 l200 0 -1 93 c-1 79 -2 85 -9 46 -15 -89 -56 -119 -164 -119 -36 0
-66 2 -66 5 0 2 56 90 125 195 69 105 125 193 125 195 0 3 -88 5 -195 5 l-195
0 0 -79z"/>
<path d="M3915 1570 c3 -5 13 -10 21 -10 12 0 14 -31 14 -190 0 -181 -1 -190
-19 -190 -11 0 -23 -4 -26 -10 -4 -6 35 -10 109 -10 71 0 116 4 116 10 0 6 -9
10 -20 10 -19 0 -20 7 -20 200 l0 200 -91 0 c-57 0 -88 -4 -84 -10z"/>
<path d="M4201 1493 c1 -87 1 -88 14 -47 21 65 34 85 70 100 44 18 139 19 132
1 -2 -6 -59 -94 -126 -194 -66 -101 -121 -185 -121 -188 0 -3 92 -5 205 -5
l205 0 -1 93 -1 92 -16 -59 c-24 -82 -50 -100 -154 -105 l-80 -3 34 53 c19 30
74 113 122 186 47 73 89 139 92 148 5 13 -17 15 -185 15 l-191 0 1 -87z"/>
</g>
</svg>
