<svg width="80" height="80" viewBox="0 0 80 80" fill="none" xmlns="http://www.w3.org/2000/svg">
<circle cx="40" cy="40" r="40" fill="#F7F8FB"/>
<path d="M41.962 44.0016H57.0057C58.6632 44.0016 60.0069 42.6579 60.0069 41.0004V28.9954C60.0069 27.3378 58.6632 25.9941 57.0057 25.9941H36.9973C35.3398 25.9941 33.9961 27.3378 33.9961 28.9954V42.0008" stroke="#0867D6" stroke-width="2" stroke-linecap="round" stroke-linejoin="round"/>
<path d="M41.962 44.0016H57.0057C58.6632 44.0016 60.0069 42.6579 60.0069 41.0004V28.9954C60.0069 27.3378 58.6632 25.9941 57.0057 25.9941H36.9973C35.3398 25.9941 33.9961 27.3378 33.9961 28.9954V42.0008" stroke="#0696E7" stroke-width="2" stroke-linecap="round" stroke-linejoin="round"/>
<path d="M41.962 44.0016H57.0057C58.6632 44.0016 60.0069 42.6579 60.0069 41.0004V28.9954C60.0069 27.3378 58.6632 25.9941 57.0057 25.9941H36.9973C35.3398 25.9941 33.9961 27.3378 33.9961 28.9954V42.0008" stroke="#208EE2" stroke-width="2" stroke-linecap="round" stroke-linejoin="round"/>
<path d="M44.8789 32.8759C46.0524 31.7134 47.9447 31.7179 49.1127 32.8859C50.2807 34.0539 50.2852 35.9462 49.1227 37.1197" stroke="#0867D6" stroke-width="2" stroke-linecap="round" stroke-linejoin="round"/>
<path d="M44.8789 32.8759C46.0524 31.7134 47.9447 31.7179 49.1127 32.8859C50.2807 34.0539 50.2852 35.9462 49.1227 37.1197" stroke="#0696E7" stroke-width="2" stroke-linecap="round" stroke-linejoin="round"/>
<path d="M44.8789 32.8759C46.0524 31.7134 47.9447 31.7179 49.1127 32.8859C50.2807 34.0539 50.2852 35.9462 49.1227 37.1197" stroke="#208EE2" stroke-width="2" stroke-linecap="round" stroke-linejoin="round"/>
<path d="M33.9941 31.9967H29.4086C28.4767 31.9967 27.5577 32.2136 26.7242 32.6304L25.5533 33.2158C24.5323 33.7263 23.6781 34.5173 23.0908 35.4962L19.9883 40.6669" stroke="#0867D6" stroke-width="2" stroke-linecap="round" stroke-linejoin="round"/>
<path d="M33.9941 31.9967H29.4086C28.4767 31.9967 27.5577 32.2136 26.7242 32.6304L25.5533 33.2158C24.5323 33.7263 23.6781 34.5173 23.0908 35.4962L19.9883 40.6669" stroke="#0696E7" stroke-width="2" stroke-linecap="round" stroke-linejoin="round"/>
<path d="M33.9941 31.9967H29.4086C28.4767 31.9967 27.5577 32.2136 26.7242 32.6304L25.5533 33.2158C24.5323 33.7263 23.6781 34.5173 23.0908 35.4962L19.9883 40.6669" stroke="#208EE2" stroke-width="2" stroke-linecap="round" stroke-linejoin="round"/>
<path d="M21.9922 58.0075L33.5207 53.8418C35.1298 53.2604 36.5102 52.1786 37.4594 50.7552L43.4477 41.7754C44.3186 40.4694 44.1466 38.7301 43.0365 37.6201V37.6201C41.7508 36.3343 39.6662 36.3341 38.3802 37.6196L33.9972 42.0009H29.9955" stroke="#0867D6" stroke-width="2" stroke-linecap="round" stroke-linejoin="round"/>
<path d="M21.9922 58.0075L33.5207 53.8418C35.1298 53.2604 36.5102 52.1786 37.4594 50.7552L43.4477 41.7754C44.3186 40.4694 44.1466 38.7301 43.0365 37.6201V37.6201C41.7508 36.3343 39.6662 36.3341 38.3802 37.6196L33.9972 42.0009H29.9955" stroke="#0696E7" stroke-width="2" stroke-linecap="round" stroke-linejoin="round"/>
<path d="M21.9922 58.0075L33.5207 53.8418C35.1298 53.2604 36.5102 52.1786 37.4594 50.7552L43.4477 41.7754C44.3186 40.4694 44.1466 38.7301 43.0365 37.6201V37.6201C41.7508 36.3343 39.6662 36.3341 38.3802 37.6196L33.9972 42.0009H29.9955" stroke="#208EE2" stroke-width="2" stroke-linecap="round" stroke-linejoin="round"/>
</svg>
