<svg width="42" height="42" viewBox="0 0 42 42" fill="none" xmlns="http://www.w3.org/2000/svg">
<g id="Group 707">
<g id="Vector">
<path d="M20.6416 21.7744C21.2672 21.7744 21.7744 21.2672 21.7744 20.6416C21.7744 20.016 21.2672 19.5088 20.6416 19.5088C20.016 19.5088 19.5088 20.016 19.5088 20.6416C19.5088 21.2672 20.016 21.7744 20.6416 21.7744Z" fill="#0867D6"/>
<path d="M20.6416 21.7744C21.2672 21.7744 21.7744 21.2672 21.7744 20.6416C21.7744 20.016 21.2672 19.5088 20.6416 19.5088C20.016 19.5088 19.5088 20.016 19.5088 20.6416C19.5088 21.2672 20.016 21.7744 20.6416 21.7744Z" fill="#0696E7"/>
<path d="M20.6416 21.7744C21.2672 21.7744 21.7744 21.2672 21.7744 20.6416C21.7744 20.016 21.2672 19.5088 20.6416 19.5088C20.016 19.5088 19.5088 20.016 19.5088 20.6416C19.5088 21.2672 20.016 21.7744 20.6416 21.7744Z" fill="#208EE2"/>
</g>
<g id="Group">
<g id="Vector_2">
<path d="M10.3887 20.6416H15.7647M25.5183 20.6416H30.8943" stroke="#0867D6" stroke-width="2" stroke-miterlimit="10" stroke-linecap="round"/>
<path d="M10.3887 20.6416H15.7647M25.5183 20.6416H30.8943" stroke="#0696E7" stroke-width="2" stroke-miterlimit="10" stroke-linecap="round"/>
<path d="M10.3887 20.6416H15.7647M25.5183 20.6416H30.8943" stroke="#208EE2" stroke-width="2" stroke-miterlimit="10" stroke-linecap="round"/>
</g>
<g id="Group_2">
<g id="Vector_3">
<path d="M20.6416 10.3887V15.7647M20.6416 25.5183V30.8943" stroke="#0867D6" stroke-width="2" stroke-miterlimit="10" stroke-linecap="round"/>
<path d="M20.6416 10.3887V15.7647M20.6416 25.5183V30.8943" stroke="#0696E7" stroke-width="2" stroke-miterlimit="10" stroke-linecap="round"/>
<path d="M20.6416 10.3887V15.7647M20.6416 25.5183V30.8943" stroke="#208EE2" stroke-width="2" stroke-miterlimit="10" stroke-linecap="round"/>
</g>
</g>
</g>
<g id="Group_3">
<g id="Vector_4">
<path d="M20.642 37.9983C30.2279 37.9983 37.9988 30.2274 37.9988 20.6415C37.9988 11.0556 30.2279 3.28467 20.642 3.28467C11.0561 3.28467 3.28516 11.0556 3.28516 20.6415C3.28516 30.2274 11.0561 37.9983 20.642 37.9983Z" stroke="#0867D6" stroke-width="2" stroke-miterlimit="10"/>
<path d="M20.642 37.9983C30.2279 37.9983 37.9988 30.2274 37.9988 20.6415C37.9988 11.0556 30.2279 3.28467 20.642 3.28467C11.0561 3.28467 3.28516 11.0556 3.28516 20.6415C3.28516 30.2274 11.0561 37.9983 20.642 37.9983Z" stroke="#0696E7" stroke-width="2" stroke-miterlimit="10"/>
<path d="M20.642 37.9983C30.2279 37.9983 37.9988 30.2274 37.9988 20.6415C37.9988 11.0556 30.2279 3.28467 20.642 3.28467C11.0561 3.28467 3.28516 11.0556 3.28516 20.6415C3.28516 30.2274 11.0561 37.9983 20.642 37.9983Z" stroke="#208EE2" stroke-width="2" stroke-miterlimit="10"/>
</g>
<g id="Vector_5">
<path d="M20.6423 34.5805C28.3407 34.5805 34.5815 28.3398 34.5815 20.6413C34.5815 12.9429 28.3407 6.70215 20.6423 6.70215C12.9439 6.70215 6.70312 12.9429 6.70312 20.6413C6.70312 28.3398 12.9439 34.5805 20.6423 34.5805Z" stroke="#0867D6" stroke-width="2" stroke-miterlimit="10"/>
<path d="M20.6423 34.5805C28.3407 34.5805 34.5815 28.3398 34.5815 20.6413C34.5815 12.9429 28.3407 6.70215 20.6423 6.70215C12.9439 6.70215 6.70312 12.9429 6.70312 20.6413C6.70312 28.3398 12.9439 34.5805 20.6423 34.5805Z" stroke="#0696E7" stroke-width="2" stroke-miterlimit="10"/>
<path d="M20.6423 34.5805C28.3407 34.5805 34.5815 28.3398 34.5815 20.6413C34.5815 12.9429 28.3407 6.70215 20.6423 6.70215C12.9439 6.70215 6.70312 12.9429 6.70312 20.6413C6.70312 28.3398 12.9439 34.5805 20.6423 34.5805Z" stroke="#208EE2" stroke-width="2" stroke-miterlimit="10"/>
</g>
</g>
<g id="Group_4">
<g id="Vector_6">
<path d="M40.2832 20.6416H38.6512M2.632 20.6416H1" stroke="#0867D6" stroke-width="2" stroke-miterlimit="10" stroke-linecap="round"/>
<path d="M40.2832 20.6416H38.6512M2.632 20.6416H1" stroke="#0696E7" stroke-width="2" stroke-miterlimit="10" stroke-linecap="round"/>
<path d="M40.2832 20.6416H38.6512M2.632 20.6416H1" stroke="#208EE2" stroke-width="2" stroke-miterlimit="10" stroke-linecap="round"/>
</g>
</g>
<g id="Group_5">
<g id="Vector_7">
<path d="M20.6416 1V2.632M20.6416 38.6512V40.2832" stroke="#0867D6" stroke-width="2" stroke-miterlimit="10" stroke-linecap="round"/>
<path d="M20.6416 1V2.632M20.6416 38.6512V40.2832" stroke="#0696E7" stroke-width="2" stroke-miterlimit="10" stroke-linecap="round"/>
<path d="M20.6416 1V2.632M20.6416 38.6512V40.2832" stroke="#208EE2" stroke-width="2" stroke-miterlimit="10" stroke-linecap="round"/>
</g>
</g>
</g>
</svg>
