<svg width="80" height="80" viewBox="0 0 80 80" fill="none" xmlns="http://www.w3.org/2000/svg">
<circle cx="40" cy="40" r="40" fill="#F7F8FB"/>
<path d="M63.7388 46.308C63.7309 46.2148 63.7105 46.1231 63.6783 46.0352L63.6518 45.9635C63.491 45.3652 63.2755 44.7832 63.0079 44.2245L57.6925 29.8683C57.2188 28.4259 56.2971 27.1722 55.0615 26.2899L54.8721 24.9466C54.8632 24.8834 54.8486 24.8211 54.8284 24.7605C54.1156 22.6398 52.1238 21.2145 49.8866 21.2242C47.0832 21.2242 44.7503 23.5235 44.6862 26.3498V26.3961L44.731 28.4744C44.2471 29.299 43.9358 30.2131 43.8158 31.1617H36.1862C36.0661 30.2143 35.7553 29.301 35.2723 28.4771L35.3168 26.4351C35.3168 26.4195 35.3168 26.4103 35.3168 26.3947C35.2525 23.5684 32.9195 21.2722 30.1163 21.2722C27.8787 21.2632 25.8871 22.689 25.1745 24.8101C25.1549 24.8691 25.1406 24.9296 25.1317 24.9911L24.9413 26.2898C23.706 27.1722 22.7845 28.4256 22.3108 29.8678L16.9956 44.2244C16.728 44.7831 16.5125 45.3652 16.3517 45.9635L16.3252 46.0351C16.2929 46.1232 16.2726 46.2152 16.2647 46.3086C14.9969 51.7802 18.4047 57.2435 23.8763 58.5113C29.3479 59.7791 34.8111 56.3712 36.0789 50.8997C36.2535 50.1466 36.3415 49.3761 36.3414 48.603C36.3414 48.4926 36.339 48.3821 36.3355 48.2729C36.3396 48.2324 36.3416 48.1916 36.3414 48.1509L36.319 44.6269H43.6853L43.6619 48.3613C43.6619 48.379 43.6635 48.3995 43.6642 48.4169C43.6631 48.4778 43.6619 48.5402 43.6619 48.6013C43.6637 54.2176 48.218 58.7689 53.8342 58.7671C59.4504 58.7653 64.0017 54.211 64 48.5948C63.9996 47.8251 63.912 47.0579 63.7388 46.308ZM30.1162 23.3793C31.7229 23.3793 33.0702 24.6552 33.2031 26.2601C31.4809 25.0534 29.3154 24.6643 27.2807 25.1961C27.7848 24.0843 28.8954 23.3727 30.1162 23.3793ZM24.2905 30.5805C24.2953 30.5676 24.2998 30.5547 24.304 30.5418C25.1729 27.8928 28.0248 26.4497 30.6738 27.3186C31.7481 27.671 32.673 28.3738 33.3002 29.3144C33.32 29.3492 33.3419 29.3828 33.3656 29.4152C33.8688 30.2078 34.1357 31.1274 34.135 32.0661L34.2005 42.3691C31.0145 38.2569 25.236 37.2177 20.8169 39.9622L24.2905 30.5805ZM33.4161 52.1501C32.0621 54.9155 29.2516 56.6687 26.1725 56.6684V56.668C21.7169 56.6666 18.1061 53.0535 18.1074 48.5979C18.1076 47.9243 18.1922 47.2534 18.3592 46.6009L18.9304 45.0581C20.8888 41.0579 25.7191 39.4028 29.7192 41.3612C33.7193 43.3196 35.3745 48.1501 33.4161 52.1501ZM43.6975 42.5228H36.3055L36.295 40.9449H43.7081L43.6975 42.5228ZM43.7217 38.841H36.2821L36.247 33.2657H43.7563L43.7217 38.841ZM49.887 23.3281C51.1302 23.3212 52.2565 24.0596 52.7461 25.2023C50.7038 24.6611 48.5268 25.0489 46.7972 26.2621C46.9039 24.6323 48.2623 23.3281 49.887 23.3281ZM45.8682 32.0586C45.8682 29.306 48.1305 27.0667 50.9114 27.0667C51.807 27.0658 52.6867 27.3042 53.4594 27.7572C53.5108 27.7955 53.5656 27.829 53.6232 27.8574C54.6051 28.4846 55.3389 29.4331 55.6992 30.5412C55.7034 30.5546 55.7079 30.5675 55.7126 30.5804L59.1863 39.9621C54.7677 37.2178 48.9899 38.2563 45.8035 42.3676L45.8682 32.0586ZM55.8277 56.4161C55.1752 56.5831 54.5043 56.6676 53.8307 56.6679L53.8309 56.6681C49.3767 56.6694 45.7647 53.0596 45.7634 48.6053C45.762 44.1511 49.3718 40.5391 53.8261 40.5378C56.9067 40.5368 59.7188 42.2909 61.0728 45.058L61.644 46.6007C62.7484 50.9173 60.1444 55.3118 55.8277 56.4161Z" fill="#0867D6"/>
<path d="M63.7388 46.308C63.7309 46.2148 63.7105 46.1231 63.6783 46.0352L63.6518 45.9635C63.491 45.3652 63.2755 44.7832 63.0079 44.2245L57.6925 29.8683C57.2188 28.4259 56.2971 27.1722 55.0615 26.2899L54.8721 24.9466C54.8632 24.8834 54.8486 24.8211 54.8284 24.7605C54.1156 22.6398 52.1238 21.2145 49.8866 21.2242C47.0832 21.2242 44.7503 23.5235 44.6862 26.3498V26.3961L44.731 28.4744C44.2471 29.299 43.9358 30.2131 43.8158 31.1617H36.1862C36.0661 30.2143 35.7553 29.301 35.2723 28.4771L35.3168 26.4351C35.3168 26.4195 35.3168 26.4103 35.3168 26.3947C35.2525 23.5684 32.9195 21.2722 30.1163 21.2722C27.8787 21.2632 25.8871 22.689 25.1745 24.8101C25.1549 24.8691 25.1406 24.9296 25.1317 24.9911L24.9413 26.2898C23.706 27.1722 22.7845 28.4256 22.3108 29.8678L16.9956 44.2244C16.728 44.7831 16.5125 45.3652 16.3517 45.9635L16.3252 46.0351C16.2929 46.1232 16.2726 46.2152 16.2647 46.3086C14.9969 51.7802 18.4047 57.2435 23.8763 58.5113C29.3479 59.7791 34.8111 56.3712 36.0789 50.8997C36.2535 50.1466 36.3415 49.3761 36.3414 48.603C36.3414 48.4926 36.339 48.3821 36.3355 48.2729C36.3396 48.2324 36.3416 48.1916 36.3414 48.1509L36.319 44.6269H43.6853L43.6619 48.3613C43.6619 48.379 43.6635 48.3995 43.6642 48.4169C43.6631 48.4778 43.6619 48.5402 43.6619 48.6013C43.6637 54.2176 48.218 58.7689 53.8342 58.7671C59.4504 58.7653 64.0017 54.211 64 48.5948C63.9996 47.8251 63.912 47.0579 63.7388 46.308ZM30.1162 23.3793C31.7229 23.3793 33.0702 24.6552 33.2031 26.2601C31.4809 25.0534 29.3154 24.6643 27.2807 25.1961C27.7848 24.0843 28.8954 23.3727 30.1162 23.3793ZM24.2905 30.5805C24.2953 30.5676 24.2998 30.5547 24.304 30.5418C25.1729 27.8928 28.0248 26.4497 30.6738 27.3186C31.7481 27.671 32.673 28.3738 33.3002 29.3144C33.32 29.3492 33.3419 29.3828 33.3656 29.4152C33.8688 30.2078 34.1357 31.1274 34.135 32.0661L34.2005 42.3691C31.0145 38.2569 25.236 37.2177 20.8169 39.9622L24.2905 30.5805ZM33.4161 52.1501C32.0621 54.9155 29.2516 56.6687 26.1725 56.6684V56.668C21.7169 56.6666 18.1061 53.0535 18.1074 48.5979C18.1076 47.9243 18.1922 47.2534 18.3592 46.6009L18.9304 45.0581C20.8888 41.0579 25.7191 39.4028 29.7192 41.3612C33.7193 43.3196 35.3745 48.1501 33.4161 52.1501ZM43.6975 42.5228H36.3055L36.295 40.9449H43.7081L43.6975 42.5228ZM43.7217 38.841H36.2821L36.247 33.2657H43.7563L43.7217 38.841ZM49.887 23.3281C51.1302 23.3212 52.2565 24.0596 52.7461 25.2023C50.7038 24.6611 48.5268 25.0489 46.7972 26.2621C46.9039 24.6323 48.2623 23.3281 49.887 23.3281ZM45.8682 32.0586C45.8682 29.306 48.1305 27.0667 50.9114 27.0667C51.807 27.0658 52.6867 27.3042 53.4594 27.7572C53.5108 27.7955 53.5656 27.829 53.6232 27.8574C54.6051 28.4846 55.3389 29.4331 55.6992 30.5412C55.7034 30.5546 55.7079 30.5675 55.7126 30.5804L59.1863 39.9621C54.7677 37.2178 48.9899 38.2563 45.8035 42.3676L45.8682 32.0586ZM55.8277 56.4161C55.1752 56.5831 54.5043 56.6676 53.8307 56.6679L53.8309 56.6681C49.3767 56.6694 45.7647 53.0596 45.7634 48.6053C45.762 44.1511 49.3718 40.5391 53.8261 40.5378C56.9067 40.5368 59.7188 42.2909 61.0728 45.058L61.644 46.6007C62.7484 50.9173 60.1444 55.3118 55.8277 56.4161Z" fill="#0696E7"/>
<path d="M63.7388 46.308C63.7309 46.2148 63.7105 46.1231 63.6783 46.0352L63.6518 45.9635C63.491 45.3652 63.2755 44.7832 63.0079 44.2245L57.6925 29.8683C57.2188 28.4259 56.2971 27.1722 55.0615 26.2899L54.8721 24.9466C54.8632 24.8834 54.8486 24.8211 54.8284 24.7605C54.1156 22.6398 52.1238 21.2145 49.8866 21.2242C47.0832 21.2242 44.7503 23.5235 44.6862 26.3498V26.3961L44.731 28.4744C44.2471 29.299 43.9358 30.2131 43.8158 31.1617H36.1862C36.0661 30.2143 35.7553 29.301 35.2723 28.4771L35.3168 26.4351C35.3168 26.4195 35.3168 26.4103 35.3168 26.3947C35.2525 23.5684 32.9195 21.2722 30.1163 21.2722C27.8787 21.2632 25.8871 22.689 25.1745 24.8101C25.1549 24.8691 25.1406 24.9296 25.1317 24.9911L24.9413 26.2898C23.706 27.1722 22.7845 28.4256 22.3108 29.8678L16.9956 44.2244C16.728 44.7831 16.5125 45.3652 16.3517 45.9635L16.3252 46.0351C16.2929 46.1232 16.2726 46.2152 16.2647 46.3086C14.9969 51.7802 18.4047 57.2435 23.8763 58.5113C29.3479 59.7791 34.8111 56.3712 36.0789 50.8997C36.2535 50.1466 36.3415 49.3761 36.3414 48.603C36.3414 48.4926 36.339 48.3821 36.3355 48.2729C36.3396 48.2324 36.3416 48.1916 36.3414 48.1509L36.319 44.6269H43.6853L43.6619 48.3613C43.6619 48.379 43.6635 48.3995 43.6642 48.4169C43.6631 48.4778 43.6619 48.5402 43.6619 48.6013C43.6637 54.2176 48.218 58.7689 53.8342 58.7671C59.4504 58.7653 64.0017 54.211 64 48.5948C63.9996 47.8251 63.912 47.0579 63.7388 46.308ZM30.1162 23.3793C31.7229 23.3793 33.0702 24.6552 33.2031 26.2601C31.4809 25.0534 29.3154 24.6643 27.2807 25.1961C27.7848 24.0843 28.8954 23.3727 30.1162 23.3793ZM24.2905 30.5805C24.2953 30.5676 24.2998 30.5547 24.304 30.5418C25.1729 27.8928 28.0248 26.4497 30.6738 27.3186C31.7481 27.671 32.673 28.3738 33.3002 29.3144C33.32 29.3492 33.3419 29.3828 33.3656 29.4152C33.8688 30.2078 34.1357 31.1274 34.135 32.0661L34.2005 42.3691C31.0145 38.2569 25.236 37.2177 20.8169 39.9622L24.2905 30.5805ZM33.4161 52.1501C32.0621 54.9155 29.2516 56.6687 26.1725 56.6684V56.668C21.7169 56.6666 18.1061 53.0535 18.1074 48.5979C18.1076 47.9243 18.1922 47.2534 18.3592 46.6009L18.9304 45.0581C20.8888 41.0579 25.7191 39.4028 29.7192 41.3612C33.7193 43.3196 35.3745 48.1501 33.4161 52.1501ZM43.6975 42.5228H36.3055L36.295 40.9449H43.7081L43.6975 42.5228ZM43.7217 38.841H36.2821L36.247 33.2657H43.7563L43.7217 38.841ZM49.887 23.3281C51.1302 23.3212 52.2565 24.0596 52.7461 25.2023C50.7038 24.6611 48.5268 25.0489 46.7972 26.2621C46.9039 24.6323 48.2623 23.3281 49.887 23.3281ZM45.8682 32.0586C45.8682 29.306 48.1305 27.0667 50.9114 27.0667C51.807 27.0658 52.6867 27.3042 53.4594 27.7572C53.5108 27.7955 53.5656 27.829 53.6232 27.8574C54.6051 28.4846 55.3389 29.4331 55.6992 30.5412C55.7034 30.5546 55.7079 30.5675 55.7126 30.5804L59.1863 39.9621C54.7677 37.2178 48.9899 38.2563 45.8035 42.3676L45.8682 32.0586ZM55.8277 56.4161C55.1752 56.5831 54.5043 56.6676 53.8307 56.6679L53.8309 56.6681C49.3767 56.6694 45.7647 53.0596 45.7634 48.6053C45.762 44.1511 49.3718 40.5391 53.8261 40.5378C56.9067 40.5368 59.7188 42.2909 61.0728 45.058L61.644 46.6007C62.7484 50.9173 60.1444 55.3118 55.8277 56.4161Z" fill="#208EE2"/>
<path d="M26.1746 41.3971C22.195 41.3971 18.9688 44.6232 18.9688 48.6029C18.9688 52.5825 22.195 55.8087 26.1746 55.8087C30.1543 55.8087 33.3804 52.5825 33.3804 48.6029C33.3761 44.6251 30.1525 41.4015 26.1746 41.3971ZM26.1746 53.7049C23.3568 53.7049 21.0726 51.4208 21.0726 48.603C21.0726 45.7853 23.3568 43.5011 26.1746 43.5011C28.9923 43.5011 31.2765 45.7853 31.2765 48.603C31.2734 51.4194 28.991 53.7018 26.1746 53.7049Z" fill="#0867D6"/>
<path d="M26.1746 41.3971C22.195 41.3971 18.9688 44.6232 18.9688 48.6029C18.9688 52.5825 22.195 55.8087 26.1746 55.8087C30.1543 55.8087 33.3804 52.5825 33.3804 48.6029C33.3761 44.6251 30.1525 41.4015 26.1746 41.3971ZM26.1746 53.7049C23.3568 53.7049 21.0726 51.4208 21.0726 48.603C21.0726 45.7853 23.3568 43.5011 26.1746 43.5011C28.9923 43.5011 31.2765 45.7853 31.2765 48.603C31.2734 51.4194 28.991 53.7018 26.1746 53.7049Z" fill="#0696E7"/>
<path d="M26.1746 41.3971C22.195 41.3971 18.9688 44.6232 18.9688 48.6029C18.9688 52.5825 22.195 55.8087 26.1746 55.8087C30.1543 55.8087 33.3804 52.5825 33.3804 48.6029C33.3761 44.6251 30.1525 41.4015 26.1746 41.3971ZM26.1746 53.7049C23.3568 53.7049 21.0726 51.4208 21.0726 48.603C21.0726 45.7853 23.3568 43.5011 26.1746 43.5011C28.9923 43.5011 31.2765 45.7853 31.2765 48.603C31.2734 51.4194 28.991 53.7018 26.1746 53.7049Z" fill="#208EE2"/>
<path d="M53.7019 41.3971C49.7222 41.3971 46.4961 44.6232 46.4961 48.6029C46.4961 52.5825 49.7222 55.8087 53.7019 55.8087C57.6815 55.8087 60.9077 52.5825 60.9077 48.6029C60.9033 44.6251 57.6797 41.4015 53.7019 41.3971ZM53.7019 53.7049C50.8842 53.7049 48.6 51.4208 48.6 48.603C48.6 45.7853 50.8842 43.5011 53.7019 43.5011C56.5196 43.5011 58.8038 45.7853 58.8038 48.603C58.8008 51.4194 56.5183 53.7019 53.7019 53.7049Z" fill="#0867D6"/>
<path d="M53.7019 41.3971C49.7222 41.3971 46.4961 44.6232 46.4961 48.6029C46.4961 52.5825 49.7222 55.8087 53.7019 55.8087C57.6815 55.8087 60.9077 52.5825 60.9077 48.6029C60.9033 44.6251 57.6797 41.4015 53.7019 41.3971ZM53.7019 53.7049C50.8842 53.7049 48.6 51.4208 48.6 48.603C48.6 45.7853 50.8842 43.5011 53.7019 43.5011C56.5196 43.5011 58.8038 45.7853 58.8038 48.603C58.8008 51.4194 56.5183 53.7019 53.7019 53.7049Z" fill="#0696E7"/>
<path d="M53.7019 41.3971C49.7222 41.3971 46.4961 44.6232 46.4961 48.6029C46.4961 52.5825 49.7222 55.8087 53.7019 55.8087C57.6815 55.8087 60.9077 52.5825 60.9077 48.6029C60.9033 44.6251 57.6797 41.4015 53.7019 41.3971ZM53.7019 53.7049C50.8842 53.7049 48.6 51.4208 48.6 48.603C48.6 45.7853 50.8842 43.5011 53.7019 43.5011C56.5196 43.5011 58.8038 45.7853 58.8038 48.603C58.8008 51.4194 56.5183 53.7019 53.7019 53.7049Z" fill="#208EE2"/>
</svg>
