<svg width="194" height="194" viewBox="0 0 194 194" fill="none" xmlns="http://www.w3.org/2000/svg">
<rect width="194" height="194" fill="#E5E5E5"/>
<g id="Medol - &#208;&#163;&#209;&#129;&#208;&#187;&#209;&#131;&#208;&#179;&#208;&#184;" clip-path="url(#clip0_0_1)">
<rect width="1920" height="3285" transform="translate(-396 -891)" fill="white"/>
<g id="Group 34">
<g id="Group 30">
<g id="Group 2">
<g id="Rectangle 3" opacity="0.9" filter="url(#filter0_d_0_1)">
<rect x="-116" y="-29" width="431" height="332" rx="35" fill="url(#paint0_linear_0_1)" shape-rendering="crispEdges"/>
</g>
<g id="Process-rafiki 1">
<g id="freepik--background-complete--inject-7">
<path id="Vector" d="M174.561 154.614H161.711V154.711H174.561V154.614Z" fill="#EBEBEB"/>
<path id="Vector_2" d="M128.513 155.669H125.142V155.766H128.513V155.669Z" fill="#EBEBEB"/>
<path id="Vector_3" d="M161.323 151.013H153.877V151.11H161.323V151.013Z" fill="#EBEBEB"/>
<path id="Vector_4" d="M37.1122 151.665H20.3545V151.762H37.1122V151.665Z" fill="#EBEBEB"/>
<path id="Vector_5" d="M43.0254 151.665H40.5693V151.762H43.0254V151.665Z" fill="#EBEBEB"/>
<path id="Vector_6" d="M87.3586 153.303H51.0107V153.4H87.3586V153.303Z" fill="#EBEBEB"/>
<path id="Vector_7" d="M91.9557 131.066H17.0407C16.4531 131.066 15.8896 130.833 15.4741 130.418C15.0586 130.002 14.8252 129.439 14.8252 128.851V23.5361C14.8303 22.9519 15.066 22.3933 15.4809 21.9821C15.8958 21.5708 16.4564 21.34 17.0407 21.34H91.9557C92.5433 21.34 93.1068 21.5734 93.5223 21.9889C93.9378 22.4044 94.1712 22.9679 94.1712 23.5555V128.851C94.1712 129.439 93.9378 130.002 93.5223 130.418C93.1068 130.833 92.5433 131.066 91.9557 131.066ZM17.0407 21.4176C16.4791 21.4187 15.9409 21.6422 15.5438 22.0392C15.1467 22.4363 14.9232 22.9746 14.9222 23.5361V128.851C14.9232 129.412 15.1467 129.951 15.5438 130.348C15.9409 130.745 16.4791 130.968 17.0407 130.969H91.9557C92.5173 130.968 93.0555 130.745 93.4526 130.348C93.8496 129.951 94.0732 129.412 94.0742 128.851V23.5361C94.0732 22.9746 93.8496 22.4363 93.4526 22.0392C93.0555 21.6422 92.5173 21.4187 91.9557 21.4176H17.0407Z" fill="#EBEBEB"/>
<path id="Vector_8" d="M175.884 131.066H100.962C100.374 131.065 99.8114 130.832 99.3961 130.416C98.9809 130.001 98.7471 129.438 98.7461 128.851V23.5361C98.7522 22.9522 98.9882 22.3943 99.4029 21.9832C99.8176 21.5721 100.378 21.341 100.962 21.34H175.884C176.467 21.342 177.026 21.5737 177.439 21.9848C177.852 22.3959 178.087 22.9532 178.092 23.5361V128.851C178.092 129.437 177.86 130 177.446 130.415C177.032 130.83 176.471 131.064 175.884 131.066ZM100.962 21.4176C100.4 21.4187 99.8618 21.6422 99.4647 22.0392C99.0676 22.4363 98.8441 22.9746 98.8431 23.5361V128.851C98.8441 129.412 99.0676 129.951 99.4647 130.348C99.8618 130.745 100.4 130.968 100.962 130.969H175.884C176.446 130.968 176.984 130.745 177.381 130.348C177.778 129.951 178.002 129.412 178.003 128.851V23.5361C178.002 22.9746 177.778 22.4363 177.381 22.0392C176.984 21.6422 176.446 21.4187 175.884 21.4176H100.962Z" fill="#EBEBEB"/>
<path id="Vector_9" d="M194 148.371H0V148.468H194V148.371Z" fill="#EBEBEB"/>
<path id="Vector_10" d="M78.8104 124.009H32.0176V39.3044L32.4948 38.8466C38.6506 32.9201 46.869 29.6185 55.414 29.6393C63.9591 29.6177 72.1778 32.9194 78.3331 38.8466L78.8104 39.3044V124.009ZM35.1216 120.905H75.7064V40.6391C70.1686 35.5606 62.9279 32.7432 55.414 32.7432C47.9001 32.7432 40.6594 35.5606 35.1216 40.6391V120.905Z" fill="#E0E0E0"/>
<path id="Vector_11" d="M76.2965 54.386V52.058H56.5784V32.3398H54.2504V52.058H34.5322V54.386H54.2504V75.6523H34.5322V77.9803H54.2504V99.2505H34.5322V101.578H54.2504V121.293H56.5784V101.578H76.2965V99.2505H56.5784V77.9803H76.2965V75.6523H56.5784V54.386H76.2965Z" fill="#F5F5F5"/>
<path id="Vector_12" d="M80.3626 125.561H30.4658V38.672L30.9198 38.218C37.422 31.7253 46.2351 28.0786 55.4239 28.0786C64.6127 28.0786 73.4259 31.7253 79.9281 38.218L80.382 38.672L80.3626 125.561ZM33.5698 122.457H77.2586V39.964C71.3811 34.3314 63.555 31.1869 55.4142 31.1869C47.2735 31.1869 39.4474 34.3314 33.5698 39.964V122.457Z" fill="#EBEBEB"/>
<path id="Vector_13" d="M161.284 124.009H114.491V39.3044L114.968 38.8466C121.124 32.9201 129.343 29.6185 137.888 29.6393C146.434 29.6175 154.654 32.9191 160.811 38.8466L161.284 39.3044V124.009ZM117.595 120.905H158.18V40.6391C152.642 35.5606 145.401 32.7432 137.888 32.7432C130.374 32.7432 123.133 35.5606 117.595 40.6391V120.905Z" fill="#E0E0E0"/>
<path id="Vector_14" d="M158.769 54.386V52.058H139.051V32.3398H136.723V52.058H117.009V54.386H136.723V75.6523H117.009V77.9803H136.723V99.2505H117.009V101.578H136.723V121.293H139.051V101.578H158.769V99.2505H139.051V77.9803H158.769V75.6523H139.051V54.386H158.769Z" fill="#F5F5F5"/>
<path id="Vector_15" d="M162.836 125.561H112.939V38.672L113.397 38.218C119.898 31.7315 128.706 28.0886 137.89 28.0886C147.073 28.0886 155.882 31.7315 162.382 38.218L162.836 38.672V125.561ZM116.043 122.457H159.732V39.964C153.855 34.3314 146.029 31.1869 137.888 31.1869C129.747 31.1869 121.921 34.3314 116.043 39.964V122.457Z" fill="#EBEBEB"/>
<path id="Vector_16" d="M97.4575 143.863H105.249C105.531 143.863 105.761 143.633 105.761 143.351V142.008C105.761 141.725 105.531 141.496 105.249 141.496H97.4575C97.1747 141.496 96.9454 141.725 96.9454 142.008V143.351C96.9454 143.633 97.1747 143.863 97.4575 143.863Z" fill="#EBEBEB"/>
<path id="Vector_17" d="M88.2115 143.863H96.0025C96.2853 143.863 96.5146 143.633 96.5146 143.351V142.008C96.5146 141.725 96.2853 141.496 96.0025 141.496H88.2115C87.9286 141.496 87.6993 141.725 87.6993 142.008V143.351C87.6993 143.633 87.9286 143.863 88.2115 143.863Z" fill="#F5F5F5"/>
<path id="Vector_18" d="M92.3325 140.929H100.124C100.406 140.929 100.636 140.7 100.636 140.417V139.075C100.636 138.792 100.406 138.563 100.124 138.563H92.3325C92.0497 138.563 91.8204 138.792 91.8204 139.075V140.417C91.8204 140.7 92.0497 140.929 92.3325 140.929Z" fill="#F5F5F5"/>
<path id="Vector_19" d="M83.106 140.929H90.897C91.1799 140.929 91.4092 140.7 91.4092 140.417V139.075C91.4092 138.792 91.1799 138.563 90.897 138.563H83.106C82.8231 138.563 82.5938 138.792 82.5938 139.075V140.417C82.5938 140.7 82.8231 140.929 83.106 140.929Z" fill="#F0F0F0"/>
<path id="Vector_20" d="M32.0181 142.396H39.8091C40.092 142.396 40.3213 142.167 40.3213 141.884V140.541C40.3213 140.258 40.092 140.029 39.8091 140.029H32.0181C31.7352 140.029 31.5059 140.258 31.5059 140.541V141.884C31.5059 142.167 31.7352 142.396 32.0181 142.396Z" fill="#F0F0F0"/>
<path id="Vector_21" d="M22.772 142.396H30.563C30.8459 142.396 31.0752 142.167 31.0752 141.884V140.541C31.0752 140.258 30.8459 140.029 30.563 140.029H22.772C22.4891 140.029 22.2598 140.258 22.2598 140.541V141.884C22.2598 142.167 22.4891 142.396 22.772 142.396Z" fill="#F5F5F5"/>
<path id="Vector_22" d="M26.8882 139.467H34.6792C34.9621 139.467 35.1914 139.237 35.1914 138.954V137.612C35.1914 137.329 34.9621 137.1 34.6792 137.1H26.8882C26.6054 137.1 26.376 137.329 26.376 137.612V138.954C26.376 139.237 26.6054 139.467 26.8882 139.467Z" fill="#F5F5F5"/>
<path id="Vector_23" d="M17.6616 139.467H25.4527C25.7355 139.467 25.9648 139.237 25.9648 138.954V137.612C25.9648 137.329 25.7355 137.1 25.4527 137.1H17.6616C17.3788 137.1 17.1495 137.329 17.1495 137.612V138.954C17.1495 139.237 17.3788 139.467 17.6616 139.467Z" fill="#F5F5F5"/>
<path id="Vector_24" d="M26.4419 30.6443H34.233C34.5158 30.6443 34.7451 30.415 34.7451 30.1321V28.7896C34.7451 28.5068 34.5158 28.2775 34.233 28.2775H26.4419C26.1591 28.2775 25.9298 28.5068 25.9298 28.7896V30.1321C25.9298 30.415 26.1591 30.6443 26.4419 30.6443Z" fill="#F5F5F5"/>
<path id="Vector_25" d="M30.5591 27.7148H38.3501C38.633 27.7148 38.8623 27.4855 38.8623 27.2027V25.8602C38.8623 25.5773 38.633 25.348 38.3501 25.348H30.5591C30.2762 25.348 30.0469 25.5773 30.0469 25.8602V27.2027C30.0469 27.4855 30.2762 27.7148 30.5591 27.7148Z" fill="#F5F5F5"/>
<path id="Vector_26" d="M21.3325 27.7148H29.1236C29.4064 27.7148 29.6357 27.4855 29.6357 27.2027V25.8602C29.6357 25.5773 29.4064 25.348 29.1236 25.348H21.3325C21.0497 25.348 20.8204 25.5773 20.8204 25.8602V27.2027C20.8204 27.4855 21.0497 27.7148 21.3325 27.7148Z" fill="#F0F0F0"/>
<path id="Vector_27" d="M166.123 33.2982H173.914C174.196 33.2982 174.426 33.0689 174.426 32.786V31.4435C174.426 31.1607 174.196 30.9314 173.914 30.9314H166.123C165.84 30.9314 165.61 31.1607 165.61 31.4435V32.786C165.61 33.0689 165.84 33.2982 166.123 33.2982Z" fill="#F0F0F0"/>
<path id="Vector_28" d="M160.989 30.3649H168.78C169.063 30.3649 169.292 30.1356 169.292 29.8528V28.5103C169.292 28.2274 169.063 27.9981 168.78 27.9981H160.989C160.706 27.9981 160.477 28.2274 160.477 28.5103V29.8528C160.477 30.1356 160.706 30.3649 160.989 30.3649Z" fill="#F5F5F5"/>
<path id="Vector_29" d="M138.462 125.491H115.248V148.705H138.462V125.491Z" fill="#F5F5F5"/>
<path id="Vector_30" d="M152.725 125.491H138.466V148.705H152.725V125.491Z" fill="#EBEBEB"/>
<path id="Vector_31" d="M144.169 125.491V134.279L144.538 133.945L145.189 134.353L145.76 133.945L146.493 134.353L147.265 133.945L147.754 134.353L148.321 134.054V125.491H144.169Z" fill="#E0E0E0"/>
<path id="Vector_32" opacity="0.7" d="M144.169 125.491V134.279L144.538 133.945L145.189 134.353L145.76 133.945L146.493 134.353L147.265 133.945L147.754 134.353L148.321 134.054V125.491H144.169Z" fill="#E0E0E0"/>
<path id="Vector_33" d="M160.147 134.884H146.322V148.709H160.147V134.884Z" fill="#F5F5F5"/>
<path id="Vector_34" d="M168.633 134.884H160.144V148.709H168.633V134.884Z" fill="#E6E6E6"/>
<path id="Vector_35" d="M157.505 138.768H143.681L146.323 134.884H160.143L157.505 138.768Z" fill="#E6E6E6"/>
<path id="Vector_36" d="M162.646 138.768H171.136L168.637 134.884H160.144L162.646 138.768Z" fill="#F5F5F5"/>
<path id="Vector_37" d="M114.93 134.884H101.105V148.709H114.93V134.884Z" fill="#F5F5F5"/>
<path id="Vector_38" d="M123.415 134.884H114.926V148.709H123.415V134.884Z" fill="#E6E6E6"/>
<path id="Vector_39" d="M112.287 131.416H98.4629L101.105 134.884H114.926L112.287 131.416Z" fill="#E6E6E6"/>
<path id="Vector_40" d="M117.428 131.416H125.918L123.419 134.884H114.926L117.428 131.416Z" fill="#EBEBEB"/>
</g>
<g id="freepik--Shadow--inject-7">
<path id="freepik--path--inject-7" d="M95.1297 164.399C136.678 164.399 170.359 162.433 170.359 160.007C170.359 157.582 136.678 155.615 95.1297 155.615C53.5817 155.615 19.9004 157.582 19.9004 160.007C19.9004 162.433 53.5817 164.399 95.1297 164.399Z" fill="#F5F5F5"/>
</g>
<g id="freepik--Process--inject-7">
<path id="Vector_41" d="M123.539 88.9645H72.0867C71.4331 88.9645 70.9033 89.4943 70.9033 90.1479V91.6766C70.9033 92.3302 71.4331 92.86 72.0867 92.86H123.539C124.193 92.86 124.723 92.3302 124.723 91.6766V90.1479C124.723 89.4943 124.193 88.9645 123.539 88.9645Z" fill="#0D4C93"/>
<path id="Vector_42" opacity="0.8" d="M123.539 88.9645H72.0867C71.4331 88.9645 70.9033 89.4943 70.9033 90.1479V91.6766C70.9033 92.3302 71.4331 92.86 72.0867 92.86H123.539C124.193 92.86 124.723 92.3302 124.723 91.6766V90.1479C124.723 89.4943 124.193 88.9645 123.539 88.9645Z" fill="white"/>
<path id="Vector_43" d="M123.536 94.9863H72.087C71.2095 94.9852 70.3683 94.6362 69.7479 94.0158C69.1274 93.3953 68.7784 92.5541 68.7773 91.6766V90.1479C68.7784 89.2704 69.1274 88.4292 69.7479 87.8088C70.3683 87.1883 71.2095 86.8393 72.087 86.8383H123.536C124.414 86.8393 125.255 87.1882 125.876 87.8085C126.497 88.4289 126.847 89.2701 126.849 90.1479V91.6766C126.847 92.5544 126.497 93.3956 125.876 94.016C125.255 94.6363 124.414 94.9852 123.536 94.9863ZM72.087 87.5483C71.3975 87.5493 70.7365 87.8234 70.2485 88.3106C69.7606 88.7978 69.4856 89.4584 69.4835 90.1479V91.6766C69.4845 92.3664 69.7593 93.0276 70.2474 93.515C70.7356 94.0025 71.3972 94.2762 72.087 94.2762H123.536C124.226 94.2762 124.887 94.0025 125.375 93.515C125.863 93.0276 126.138 92.3664 126.139 91.6766V90.1479C126.137 89.4584 125.862 88.7978 125.374 88.3106C124.886 87.8234 124.225 87.5493 123.536 87.5483H72.087Z" fill="#263238"/>
<g id="Group" opacity="0.3">
<path id="Vector_44" d="M123.536 94.9863H72.087C71.2095 94.9852 70.3683 94.6362 69.7479 94.0158C69.1274 93.3953 68.7784 92.5541 68.7773 91.6766V90.1479C68.7784 89.2704 69.1274 88.4292 69.7479 87.8088C70.3683 87.1883 71.2095 86.8393 72.087 86.8383H123.536C124.414 86.8393 125.255 87.1882 125.876 87.8085C126.497 88.4289 126.847 89.2701 126.849 90.1479V91.6766C126.847 92.5544 126.497 93.3956 125.876 94.016C125.255 94.6363 124.414 94.9852 123.536 94.9863ZM72.087 87.5483C71.3975 87.5493 70.7365 87.8234 70.2485 88.3106C69.7606 88.7978 69.4856 89.4584 69.4835 90.1479V91.6766C69.4845 92.3664 69.7593 93.0276 70.2474 93.515C70.7356 94.0025 71.3972 94.2762 72.087 94.2762H123.536C124.226 94.2762 124.887 94.0025 125.375 93.515C125.863 93.0276 126.138 92.3664 126.139 91.6766V90.1479C126.137 89.4584 125.862 88.7978 125.374 88.3106C124.886 87.8234 124.225 87.5493 123.536 87.5483H72.087Z" fill="white"/>
</g>
<path id="Vector_45" d="M111.709 88.9645H72.0869C71.7767 88.9706 71.4812 89.0978 71.2637 89.319C71.0461 89.5401 70.9238 89.8377 70.9229 90.1479V91.6766C70.9238 91.9868 71.0461 92.2843 71.2637 92.5055C71.4812 92.7267 71.7767 92.8539 72.0869 92.86H107.814L111.709 88.9645Z" fill="#0D4C93"/>
<path id="Vector_46" d="M147.592 94.9863H132.122C131.984 94.9866 131.846 94.9585 131.719 94.9038C131.591 94.8491 131.477 94.7689 131.381 94.6681L128.456 91.5874C128.275 91.3976 128.174 91.1454 128.174 90.8832C128.174 90.6209 128.275 90.3687 128.456 90.1789L131.374 87.1487C131.469 87.0508 131.583 86.9729 131.709 86.9196C131.835 86.8663 131.97 86.8386 132.107 86.8383H147.584C147.855 86.8383 148.114 86.9458 148.306 87.1371C148.497 87.3285 148.605 87.5881 148.605 87.8587V93.9697C148.605 94.2386 148.498 94.4966 148.308 94.6871C148.118 94.8777 147.861 94.9852 147.592 94.9863Z" fill="#0D4C93"/>
<path id="Vector_47" d="M136.747 88.4989V89.24L134.943 93.3644H133.721L135.463 89.4262H133.86V90.2022H132.863V88.495L136.747 88.4989Z" fill="white"/>
<path id="Vector_48" d="M140.872 92.4371V93.3528H137.202V92.6272L139.076 90.858C139.229 90.7157 139.36 90.5508 139.464 90.3691C139.528 90.2495 139.564 90.1167 139.568 89.9811C139.573 89.8963 139.558 89.8117 139.523 89.7341C139.489 89.6565 139.436 89.5882 139.37 89.5349C139.199 89.4193 138.994 89.3646 138.788 89.3797C138.59 89.3763 138.394 89.4174 138.214 89.5C138.042 89.5824 137.893 89.708 137.784 89.8647L136.965 89.3176C137.158 89.0301 137.427 88.8007 137.741 88.6541C138.1 88.4901 138.491 88.4092 138.885 88.4174C139.21 88.4106 139.532 88.47 139.832 88.592C140.086 88.6965 140.305 88.8699 140.465 89.0926C140.622 89.32 140.701 89.5923 140.69 89.8686C140.692 90.1251 140.635 90.3787 140.523 90.6096C140.354 90.9031 140.136 91.1655 139.879 91.3856L138.761 92.4371H140.872Z" fill="white"/>
<path id="Vector_49" d="M141.659 90.7571C141.443 90.4801 141.325 90.1386 141.325 89.7871C141.325 89.4355 141.443 89.0941 141.659 88.8171C141.773 88.7016 141.908 88.6099 142.057 88.5473C142.206 88.4848 142.367 88.4525 142.528 88.4525C142.69 88.4525 142.85 88.4848 143 88.5473C143.149 88.6099 143.284 88.7016 143.397 88.8171C143.61 89.096 143.724 89.4367 143.724 89.7871C143.724 90.1374 143.61 90.4782 143.397 90.7571C143.284 90.8725 143.149 90.9642 143 91.0268C142.85 91.0894 142.69 91.1216 142.528 91.1216C142.367 91.1216 142.206 91.0894 142.057 91.0268C141.908 90.9642 141.773 90.8725 141.659 90.7571ZM142.901 90.3691C143.002 90.1954 143.049 89.9955 143.037 89.7948C143.049 89.5929 143.002 89.3918 142.901 89.2167C142.859 89.1567 142.804 89.1076 142.74 89.0737C142.675 89.0398 142.603 89.0221 142.53 89.0221C142.457 89.0221 142.386 89.0398 142.321 89.0737C142.257 89.1076 142.201 89.1567 142.16 89.2167C142.067 89.3967 142.019 89.5963 142.019 89.7987C142.019 90.0011 142.067 90.2007 142.16 90.3807C142.201 90.4407 142.257 90.4898 142.321 90.5237C142.386 90.5576 142.457 90.5753 142.53 90.5753C142.603 90.5753 142.675 90.5576 142.74 90.5237C142.804 90.4898 142.859 90.4407 142.901 90.3807V90.3691ZM145.423 88.5105H146.245L142.932 93.3644H142.105L145.423 88.5105ZM145.202 93.2597C145.018 93.1467 144.87 92.9839 144.775 92.7902C144.67 92.57 144.618 92.328 144.624 92.084C144.619 91.8388 144.67 91.5958 144.775 91.374C144.87 91.1813 145.018 91.0198 145.202 90.9084C145.39 90.7985 145.605 90.7421 145.822 90.7454C145.985 90.7397 146.148 90.769 146.298 90.8312C146.449 90.8935 146.584 90.9872 146.695 91.1063C146.909 91.3846 147.024 91.7255 147.024 92.0763C147.024 92.427 146.909 92.7679 146.695 93.0463C146.584 93.1648 146.448 93.2585 146.298 93.3213C146.147 93.3841 145.985 93.4147 145.822 93.411C145.605 93.4143 145.39 93.3579 145.202 93.248V93.2597ZM146.195 92.6544C146.288 92.4743 146.336 92.2748 146.336 92.0724C146.336 91.8699 146.288 91.6704 146.195 91.4904C146.154 91.4256 146.096 91.373 146.028 91.3382C145.96 91.3034 145.883 91.2876 145.807 91.2925C145.734 91.2917 145.663 91.3091 145.598 91.3429C145.534 91.3768 145.479 91.4261 145.438 91.4865C145.337 91.6616 145.29 91.8627 145.303 92.0646C145.29 92.2653 145.337 92.4652 145.438 92.6389C145.479 92.6992 145.534 92.7486 145.598 92.7824C145.663 92.8163 145.734 92.8336 145.807 92.8329C145.883 92.8386 145.959 92.8239 146.027 92.7905C146.095 92.7571 146.153 92.7061 146.195 92.6427V92.6544Z" fill="white"/>
</g>
<g id="freepik--gear-3--inject-7">
<path id="Vector_50" d="M164.772 53.3112L161.377 53.3655C160.947 52.4475 160.438 51.5685 159.856 50.7388L161.602 47.8249C160.705 46.7148 159.693 45.7029 158.583 44.8063L155.669 46.5523C154.839 45.9685 153.959 45.4596 153.039 45.0313L153.097 41.6324C151.771 41.1213 150.395 40.7506 148.992 40.5266L147.339 43.5026C146.839 43.4599 146.334 43.4327 145.822 43.4327C145.31 43.4327 144.805 43.4599 144.305 43.5026L142.652 40.5266C141.238 40.749 139.852 41.1197 138.516 41.6324L138.574 45.0313C137.655 45.4596 136.776 45.9686 135.947 46.5523L133.033 44.8063C131.923 45.7039 130.91 46.7157 130.011 47.8249L131.761 50.7388C131.176 51.5667 130.667 52.4459 130.24 53.3655L126.841 53.3112C126.321 54.6387 125.943 56.0173 125.712 57.424L128.688 59.073C128.641 59.5735 128.614 60.0818 128.614 60.5901C128.614 61.0984 128.641 61.6105 128.688 62.1072L125.712 63.7717C125.939 65.1834 126.315 66.5672 126.833 67.9L130.232 67.8457C130.659 68.7653 131.168 69.6445 131.753 70.4725L130.003 73.3863C130.902 74.4956 131.915 75.5073 133.026 76.405L135.94 74.659C136.768 75.2427 137.648 75.7516 138.566 76.1799L138.508 79.5749C139.84 80.09 141.222 80.4619 142.633 80.6846L144.285 77.7087C144.786 77.7513 145.29 77.7785 145.803 77.7785C146.315 77.7785 146.819 77.7513 147.32 77.7087L148.973 80.6846C150.383 80.4624 151.766 80.0904 153.097 79.5749L153.039 76.1799C153.959 75.7517 154.839 75.2427 155.669 74.659L158.583 76.405C159.693 75.5083 160.705 74.4965 161.602 73.3863L159.856 70.4725C160.438 69.6427 160.947 68.7638 161.377 67.8457L164.772 67.9C165.288 66.569 165.659 65.1862 165.878 63.7756L162.906 62.1227C162.948 61.6261 162.975 61.1178 162.975 60.6056C162.975 60.0935 162.948 59.5891 162.906 59.0885L165.878 57.4395C165.659 56.0276 165.288 54.6434 164.772 53.3112Z" fill="#0D4C93"/>
<path id="Vector_51" opacity="0.4" d="M164.772 53.3112L161.377 53.3655C160.947 52.4475 160.438 51.5685 159.856 50.7388L161.602 47.8249C160.705 46.7148 159.693 45.7029 158.583 44.8063L155.669 46.5523C154.839 45.9685 153.959 45.4596 153.039 45.0313L153.097 41.6324C151.771 41.1213 150.395 40.7506 148.992 40.5266L147.339 43.5026C146.839 43.4599 146.334 43.4327 145.822 43.4327C145.31 43.4327 144.805 43.4599 144.305 43.5026L142.652 40.5266C141.238 40.749 139.852 41.1197 138.516 41.6324L138.574 45.0313C137.655 45.4596 136.776 45.9686 135.947 46.5523L133.033 44.8063C131.923 45.7039 130.91 46.7157 130.011 47.8249L131.761 50.7388C131.176 51.5667 130.667 52.4459 130.24 53.3655L126.841 53.3112C126.321 54.6387 125.943 56.0173 125.712 57.424L128.688 59.073C128.641 59.5735 128.614 60.0818 128.614 60.5901C128.614 61.0984 128.641 61.6105 128.688 62.1072L125.712 63.7717C125.939 65.1834 126.315 66.5672 126.833 67.9L130.232 67.8457C130.659 68.7653 131.168 69.6445 131.753 70.4725L130.003 73.3863C130.902 74.4956 131.915 75.5073 133.026 76.405L135.94 74.659C136.768 75.2427 137.648 75.7516 138.566 76.1799L138.508 79.5749C139.84 80.09 141.222 80.4619 142.633 80.6846L144.285 77.7087C144.786 77.7513 145.29 77.7785 145.803 77.7785C146.315 77.7785 146.819 77.7513 147.32 77.7087L148.973 80.6846C150.383 80.4624 151.766 80.0904 153.097 79.5749L153.039 76.1799C153.959 75.7517 154.839 75.2427 155.669 74.659L158.583 76.405C159.693 75.5083 160.705 74.4965 161.602 73.3863L159.856 70.4725C160.438 69.6427 160.947 68.7638 161.377 67.8457L164.772 67.9C165.288 66.569 165.659 65.1862 165.878 63.7756L162.906 62.1227C162.948 61.6261 162.975 61.1178 162.975 60.6056C162.975 60.0935 162.948 59.5891 162.906 59.0885L165.878 57.4395C165.659 56.0276 165.288 54.6434 164.772 53.3112Z" fill="white"/>
<path id="Vector_52" opacity="0.2" d="M145.802 70.7906C151.429 70.7906 155.991 66.2289 155.991 60.6017C155.991 54.9746 151.429 50.4128 145.802 50.4128C140.175 50.4128 135.613 54.9746 135.613 60.6017C135.613 66.2289 140.175 70.7906 145.802 70.7906Z" fill="black"/>
<path id="Vector_53" d="M151.222 62.7202C151.456 62.4593 151.584 62.1216 151.584 61.7716C151.584 61.4216 151.456 61.0839 151.222 60.8229L151.195 60.7919V60.7725C150.132 59.7094 149.068 58.645 148.002 57.5792C146.722 56.2988 144.731 58.2854 146.015 59.5697L146.791 60.3457H141.359C139.551 60.3457 139.548 63.1587 141.359 63.1587H146.791L146.015 63.9347C144.731 65.219 146.722 67.2055 148.002 65.9251L151.195 62.7319V62.7086L151.222 62.7202Z" fill="#0D4C93"/>
<path id="Vector_54" opacity="0.4" d="M151.222 62.7202C151.456 62.4593 151.584 62.1216 151.584 61.7716C151.584 61.4216 151.456 61.0839 151.222 60.8229L151.195 60.7919V60.7725C150.132 59.7094 149.068 58.645 148.002 57.5792C146.722 56.2988 144.731 58.2854 146.015 59.5697L146.791 60.3457H141.359C139.551 60.3457 139.548 63.1587 141.359 63.1587H146.791L146.015 63.9347C144.731 65.219 146.722 67.2055 148.002 65.9251L151.195 62.7319V62.7086L151.222 62.7202Z" fill="black"/>
<path id="Vector_55" d="M151.222 61.5562C151.456 61.2953 151.584 60.9576 151.584 60.6076C151.584 60.2576 151.456 59.9199 151.222 59.6589L151.195 59.6279V59.6085C150.132 58.5454 149.068 57.481 148.002 56.4152C146.722 55.1348 144.731 57.1214 146.015 58.4057L146.791 59.1817H141.359C139.551 59.1817 139.548 61.9947 141.359 61.9947H146.791L146.015 62.7707C144.731 64.055 146.722 66.0415 148.002 64.7611L151.195 61.5679V61.5446L151.222 61.5562Z" fill="#0D4C93"/>
<path id="Vector_56" d="M150.994 39.0988C151.86 39.3103 152.713 39.5694 153.551 39.8748C153.76 39.9524 153.853 39.6149 153.644 39.5411C152.806 39.2357 151.953 38.9767 151.087 38.7651C150.87 38.7147 150.777 39.0522 150.994 39.1027V39.0988Z" fill="#0D4C93"/>
<path id="Vector_57" d="M129.979 45.1011C134.193 40.9228 139.872 38.5558 145.806 38.5051C145.852 38.5051 145.897 38.4868 145.929 38.454C145.962 38.4213 145.981 38.3769 145.981 38.3305C145.981 38.2842 145.962 38.2398 145.929 38.2071C145.897 38.1743 145.852 38.1559 145.806 38.1559C139.778 38.2137 134.01 40.6221 129.731 44.8683C129.715 44.8847 129.702 44.904 129.693 44.9253C129.684 44.9466 129.68 44.9694 129.68 44.9925C129.68 45.0156 129.684 45.0384 129.693 45.0597C129.702 45.081 129.715 45.1004 129.731 45.1167C129.747 45.133 129.767 45.1459 129.788 45.1547C129.809 45.1636 129.832 45.1681 129.855 45.1681C129.878 45.1681 129.901 45.1636 129.922 45.1547C129.944 45.1459 129.963 45.133 129.979 45.1167V45.1011Z" fill="#0D4C93"/>
</g>
<g id="freepik--gear-2--inject-7">
<path id="Vector_58" d="M122.31 64.6447C122.522 63.8352 122.67 63.01 122.752 62.177L126.574 61.1954C126.574 60.7104 126.574 60.2292 126.574 59.7481L122.732 58.8169C122.545 57.154 122.099 55.5306 121.409 54.0057L124.226 51.2432C123.997 50.8164 123.753 50.4012 123.493 49.9938L119.706 51.1035C118.711 49.7626 117.513 48.5845 116.156 47.6115L117.215 43.8052C116.827 43.553 116.385 43.3202 115.958 43.0952L113.242 45.9508C112.476 45.6162 111.684 45.3424 110.875 45.1322C110.067 44.9195 109.243 44.7716 108.411 44.6898L107.426 40.868C106.941 40.868 106.46 40.868 105.982 40.868L105.047 44.7092C103.384 44.8972 101.761 45.345 100.236 46.0362L97.4736 43.2154C97.0468 43.4444 96.6317 43.6888 96.2243 43.9488L97.3339 47.7356C95.993 48.7309 94.8149 49.9286 93.8419 51.2858L90.0163 50.215C89.7641 50.6224 89.5313 51.0453 89.3062 51.4721L92.1619 54.1881C91.8273 54.953 91.5535 55.743 91.3432 56.551C91.1324 57.3596 90.9846 58.1834 90.9009 59.0148L87.0791 60.0003C87.0791 60.4853 87.0791 60.9664 87.0791 61.4476L90.9203 62.3788C91.1083 64.042 91.556 65.6655 92.2473 67.19L89.4304 69.9525C89.6593 70.3793 89.8999 70.7945 90.1598 71.2019L93.9467 70.0922C94.942 71.4331 96.1397 72.6112 97.4969 73.5842L96.4377 77.3905C96.8451 77.6427 97.268 77.8755 97.6987 78.1005L100.415 75.2448C101.18 75.5795 101.97 75.8532 102.778 76.0635C103.587 76.2765 104.412 76.4244 105.245 76.5058L106.227 80.3276C106.712 80.3276 107.193 80.3276 107.674 80.3276L108.605 76.4864C110.269 76.2995 111.892 75.8517 113.417 75.1595L116.179 77.9802C116.606 77.7513 117.021 77.5069 117.428 77.2469L116.319 73.46C117.661 72.4658 118.839 71.2679 119.811 69.9098L123.617 70.9691C123.869 70.5617 124.102 70.1388 124.327 69.7081L121.471 66.9921C121.812 66.2328 122.092 65.4479 122.31 64.6447Z" fill="#0D4C93"/>
<path id="Vector_59" opacity="0.2" d="M122.31 64.6447C122.522 63.8352 122.67 63.01 122.752 62.177L126.574 61.1954C126.574 60.7104 126.574 60.2292 126.574 59.7481L122.732 58.8169C122.545 57.154 122.099 55.5306 121.409 54.0057L124.226 51.2432C123.997 50.8164 123.753 50.4012 123.493 49.9938L119.706 51.1035C118.711 49.7626 117.513 48.5845 116.156 47.6115L117.215 43.8052C116.827 43.553 116.385 43.3202 115.958 43.0952L113.242 45.9508C112.476 45.6162 111.684 45.3424 110.875 45.1322C110.067 44.9195 109.243 44.7716 108.411 44.6898L107.426 40.868C106.941 40.868 106.46 40.868 105.982 40.868L105.047 44.7092C103.384 44.8972 101.761 45.345 100.236 46.0362L97.4736 43.2154C97.0468 43.4444 96.6317 43.6888 96.2243 43.9488L97.3339 47.7356C95.993 48.7309 94.8149 49.9286 93.8419 51.2858L90.0163 50.215C89.7641 50.6224 89.5313 51.0453 89.3062 51.4721L92.1619 54.1881C91.8273 54.953 91.5535 55.743 91.3432 56.551C91.1324 57.3596 90.9846 58.1834 90.9009 59.0148L87.0791 60.0003C87.0791 60.4853 87.0791 60.9664 87.0791 61.4476L90.9203 62.3788C91.1083 64.042 91.556 65.6655 92.2473 67.19L89.4304 69.9525C89.6593 70.3793 89.8999 70.7945 90.1598 71.2019L93.9467 70.0922C94.942 71.4331 96.1397 72.6112 97.4969 73.5842L96.4377 77.3905C96.8451 77.6427 97.268 77.8755 97.6987 78.1005L100.415 75.2448C101.18 75.5795 101.97 75.8532 102.778 76.0635C103.587 76.2765 104.412 76.4244 105.245 76.5058L106.227 80.3276C106.712 80.3276 107.193 80.3276 107.674 80.3276L108.605 76.4864C110.269 76.2995 111.892 75.8517 113.417 75.1595L116.179 77.9802C116.606 77.7513 117.021 77.5069 117.428 77.2469L116.319 73.46C117.661 72.4658 118.839 71.2679 119.811 69.9098L123.617 70.9691C123.869 70.5617 124.102 70.1388 124.327 69.7081L121.471 66.9921C121.812 66.2328 122.092 65.4479 122.31 64.6447Z" fill="white"/>
<path id="Vector_60" opacity="0.3" d="M106.825 70.7479C112.429 70.7479 116.971 66.2053 116.971 60.6017C116.971 54.9981 112.429 50.4555 106.825 50.4555C101.221 50.4555 96.6787 54.9981 96.6787 60.6017C96.6787 66.2053 101.221 70.7479 106.825 70.7479Z" fill="black"/>
<path id="Vector_61" d="M111.702 62.565C111.912 62.3302 112.028 62.0263 112.028 61.7114C112.028 61.3964 111.912 61.0925 111.702 60.8578L111.679 60.8306L108.803 57.9556C107.639 56.7916 105.862 58.5919 107.015 59.7442C107.251 59.9848 107.492 60.2215 107.729 60.4582H102.84C101.21 60.4582 101.206 62.9918 102.84 62.9918H107.721C107.484 63.2285 107.244 63.4652 107.007 63.7057C105.843 64.8697 107.643 66.6468 108.796 65.4944L111.671 62.6193L111.702 62.565Z" fill="#0D4C93"/>
<path id="Vector_62" opacity="0.4" d="M111.702 62.565C111.912 62.3302 112.028 62.0263 112.028 61.7114C112.028 61.3964 111.912 61.0925 111.702 60.8578L111.679 60.8306L108.803 57.9556C107.639 56.7916 105.862 58.5919 107.015 59.7442C107.251 59.9848 107.492 60.2215 107.729 60.4582H102.84C101.21 60.4582 101.206 62.9918 102.84 62.9918H107.721C107.484 63.2285 107.244 63.4652 107.007 63.7057C105.843 64.8697 107.643 66.6468 108.796 65.4944L111.671 62.6193L111.702 62.565Z" fill="black"/>
<path id="Vector_63" d="M111.702 61.5174C111.912 61.2826 112.028 60.9787 112.028 60.6638C112.028 60.3488 111.912 60.0449 111.702 59.8102L111.679 59.783L108.803 56.9079C107.639 55.7439 105.862 57.5443 107.015 58.6966C107.251 58.9372 107.492 59.1739 107.729 59.4105H102.84C101.21 59.4105 101.206 61.9442 102.84 61.9442H107.721C107.484 62.1809 107.244 62.4176 107.007 62.6581C105.843 63.8221 107.643 65.5992 108.796 64.4468L111.671 61.5717C111.672 61.5653 111.672 61.5587 111.671 61.5523L111.702 61.5174Z" fill="#0D4C93"/>
<path id="Vector_64" d="M106.825 81.7089C101.709 81.6621 96.7767 79.7926 92.9151 76.436C92.7444 76.2886 92.496 76.5369 92.6668 76.6843C96.5962 80.104 101.616 82.0107 106.825 82.062C106.871 82.062 106.916 82.0436 106.948 82.0109C106.981 81.9781 106.999 81.9337 106.999 81.8874C106.999 81.8411 106.981 81.7967 106.948 81.764C106.916 81.7312 106.871 81.7128 106.825 81.7128V81.7089Z" fill="#0D4C93"/>
<path id="Vector_65" d="M112.87 80.8243C111.586 81.2025 110.27 81.4623 108.939 81.6003C108.718 81.6236 108.718 81.9883 108.939 81.9495C110.301 81.8133 111.648 81.5536 112.963 81.1735C113.008 81.1611 113.046 81.1315 113.069 81.0911C113.092 81.0507 113.097 81.0029 113.085 80.9581C113.073 80.9134 113.043 80.8754 113.003 80.8524C112.962 80.8295 112.915 80.8236 112.87 80.8359V80.8243Z" fill="#0D4C93"/>
</g>
<g id="freepik--gear-1--inject-7">
<path id="Vector_66" d="M86.1051 54.2851L83.1601 54.3355C82.7882 53.5399 82.3481 52.7778 81.8448 52.058L83.358 49.536C82.5789 48.5752 81.7025 47.6975 80.7429 46.917L78.217 48.4341C77.4992 47.9265 76.7369 47.485 75.9395 47.1149L75.9899 44.1738C74.836 43.7287 73.6382 43.4075 72.4164 43.2155L71.0041 45.784C70.5695 45.7452 70.1311 45.7219 69.6888 45.7219C69.2465 45.7219 68.808 45.7452 68.3735 45.784L66.9417 43.2077C65.7212 43.3996 64.5246 43.7209 63.3721 44.1661L63.4187 47.1071C62.6229 47.4781 61.862 47.9196 61.145 48.4263L58.5881 46.917C57.6266 47.6955 56.75 48.5733 55.973 49.536L57.4862 52.058C56.9802 52.7768 56.5388 53.539 56.167 54.3355L53.2259 54.2851C52.7812 55.4391 52.46 56.6369 52.2676 57.8586L54.8439 59.2903C54.8051 59.721 54.7818 60.1594 54.7818 60.6017C54.7818 61.0441 54.8051 61.4825 54.8439 61.9171L52.2676 63.3488C52.46 64.5704 52.7812 65.7683 53.2259 66.9223L56.167 66.8718C56.5388 67.6684 56.9802 68.4305 57.4862 69.1494L55.973 71.6714C56.7491 72.6337 57.6258 73.5104 58.5881 74.2865L61.114 72.7733C61.831 73.28 62.5919 73.7215 63.3877 74.0925L63.3411 77.0335C64.4936 77.4787 65.6902 77.8 66.9107 77.9919L68.3424 75.4156C68.777 75.4544 69.2154 75.4777 69.6577 75.4777C70.1001 75.4777 70.5385 75.4544 70.9731 75.4156L72.4009 77.9919C73.6226 77.7999 74.8205 77.4787 75.9744 77.0335L75.9239 74.0925C76.7214 73.7224 77.4837 73.2809 78.2015 72.7733L80.7274 74.2865C81.6879 73.5084 82.5643 72.6319 83.3425 71.6714L81.8293 69.1494C82.3326 68.4295 82.7726 67.6675 83.1446 66.8718L86.0895 66.9223C86.5325 65.7677 86.8536 64.57 87.0479 63.3488L84.4716 61.9171C84.5065 61.4825 84.5298 61.0479 84.5298 60.6017C84.5298 60.1555 84.5065 59.721 84.4716 59.2903L87.0479 57.8586C86.8587 56.6379 86.5427 55.4403 86.1051 54.2851Z" fill="#0D4C93"/>
<path id="Vector_67" opacity="0.3" d="M86.1051 54.2851L83.1601 54.3355C82.7882 53.5399 82.3481 52.7778 81.8448 52.058L83.358 49.536C82.5789 48.5752 81.7025 47.6975 80.7429 46.917L78.217 48.4341C77.4992 47.9265 76.7369 47.485 75.9395 47.1149L75.9899 44.1738C74.836 43.7287 73.6382 43.4075 72.4164 43.2155L71.0041 45.784C70.5695 45.7452 70.1311 45.7219 69.6888 45.7219C69.2465 45.7219 68.808 45.7452 68.3735 45.784L66.9417 43.2077C65.7212 43.3996 64.5246 43.7209 63.3721 44.1661L63.4187 47.1071C62.6229 47.4781 61.862 47.9196 61.145 48.4263L58.5881 46.917C57.6266 47.6955 56.75 48.5733 55.973 49.536L57.4862 52.058C56.9802 52.7768 56.5388 53.539 56.167 54.3355L53.2259 54.2851C52.7812 55.4391 52.46 56.6369 52.2676 57.8586L54.8439 59.2903C54.8051 59.721 54.7818 60.1594 54.7818 60.6017C54.7818 61.0441 54.8051 61.4825 54.8439 61.9171L52.2676 63.3488C52.46 64.5704 52.7812 65.7683 53.2259 66.9223L56.167 66.8718C56.5388 67.6684 56.9802 68.4305 57.4862 69.1494L55.973 71.6714C56.7491 72.6337 57.6258 73.5104 58.5881 74.2865L61.114 72.7733C61.831 73.28 62.5919 73.7215 63.3877 74.0925L63.3411 77.0335C64.4936 77.4787 65.6902 77.8 66.9107 77.9919L68.3424 75.4156C68.777 75.4544 69.2154 75.4777 69.6577 75.4777C70.1001 75.4777 70.5385 75.4544 70.9731 75.4156L72.4009 77.9919C73.6226 77.7999 74.8205 77.4787 75.9744 77.0335L75.9239 74.0925C76.7214 73.7224 77.4837 73.2809 78.2015 72.7733L80.7274 74.2865C81.6879 73.5084 82.5643 72.6319 83.3425 71.6714L81.8293 69.1494C82.3326 68.4295 82.7726 67.6675 83.1446 66.8718L86.0895 66.9223C86.5325 65.7677 86.8536 64.57 87.0479 63.3488L84.4716 61.9171C84.5065 61.4825 84.5298 61.0479 84.5298 60.6017C84.5298 60.1555 84.5065 59.721 84.4716 59.2903L87.0479 57.8586C86.8587 56.6379 86.5427 55.4403 86.1051 54.2851Z" fill="white"/>
<path id="Vector_68" opacity="0.4" d="M69.673 72.7074C76.3587 72.7074 81.7786 67.2875 81.7786 60.6018C81.7786 53.916 76.3587 48.4962 69.673 48.4962C62.9872 48.4962 57.5674 53.916 57.5674 60.6018C57.5674 67.2875 62.9872 72.7074 69.673 72.7074Z" fill="black"/>
<path id="Vector_69" d="M73.7665 62.4137C73.9533 62.2052 74.0566 61.9351 74.0566 61.6552C74.0566 61.3752 73.9533 61.1051 73.7665 60.8966V60.8695L71.2096 58.3164C70.1853 57.2921 68.5945 58.8829 69.6188 59.9072L70.2279 60.528H65.8901C64.439 60.528 64.439 62.7784 65.8901 62.7784H70.2279L69.5916 63.4147C68.5673 64.4391 70.1581 66.0299 71.1824 65.0055L73.7393 62.4486L73.7665 62.4137Z" fill="#0D4C93"/>
<path id="Vector_70" opacity="0.4" d="M73.7665 62.4137C73.9533 62.2052 74.0566 61.9351 74.0566 61.6552C74.0566 61.3752 73.9533 61.1051 73.7665 60.8966V60.8695L71.2096 58.3164C70.1853 57.2921 68.5945 58.8829 69.6188 59.9072L70.2279 60.528H65.8901C64.439 60.528 64.439 62.7784 65.8901 62.7784H70.2279L69.5916 63.4147C68.5673 64.4391 70.1581 66.0299 71.1824 65.0055L73.7393 62.4486L73.7665 62.4137Z" fill="black"/>
<path id="Vector_71" d="M73.7665 61.4825C73.9533 61.274 74.0566 61.0039 74.0566 60.7239C74.0566 60.444 73.9533 60.1739 73.7665 59.9654V59.9382L71.2096 57.3852C70.1853 56.3609 68.5945 57.9517 69.6188 58.976L70.2551 59.6084H65.8901C64.439 59.6084 64.439 61.8588 65.8901 61.8588H70.2279L69.5916 62.468C68.5673 63.4923 70.1581 65.0831 71.1824 64.0588L73.7393 61.5019L73.7665 61.4825Z" fill="#0D4C93"/>
<path id="Vector_72" d="M54.3702 49.7532C56.1368 47.3471 58.4393 45.3852 61.0953 44.0229C63.7513 42.6605 66.688 41.9351 69.6729 41.904C69.7192 41.904 69.7636 41.8856 69.7963 41.8529C69.8291 41.8201 69.8475 41.7757 69.8475 41.7294C69.8475 41.6831 69.8291 41.6387 69.7963 41.606C69.7636 41.5732 69.7192 41.5548 69.6729 41.5548C66.628 41.5871 63.6325 42.3288 60.9243 43.7209C58.2161 45.1131 55.8697 47.1174 54.0714 49.5748C53.9356 49.7532 54.2382 49.9279 54.3702 49.7494V49.7532Z" fill="#0D4C93"/>
<path id="Vector_73" d="M72.141 42.067C72.9519 42.1783 73.7552 42.339 74.5466 42.5481C74.7639 42.6024 74.857 42.2648 74.6397 42.2105C73.8487 42.0009 73.0452 41.8415 72.2341 41.7333C72.0168 41.7022 71.9198 42.0398 72.141 42.067Z" fill="#0D4C93"/>
</g>
</g>
<path id="&#208;&#152;&#208;&#189;&#209;&#129;&#209;&#130;&#208;&#176;&#208;&#187;&#208;&#187;&#209;&#143;&#209;&#134;&#208;&#184;&#209;&#143; &#208;&#184; &#208;&#191;&#209;&#131;&#209;&#129;&#208;&#186;&#208;&#190;-&#208;&#189;&#208;&#176;&#208;&#187;&#208;&#176;&#208;&#180;&#208;&#190;&#209;&#135;&#208;&#189;&#209;&#139;&#208;&#181; &#209;&#128;&#208;&#176;&#208;&#177;&#208;&#190;&#209;&#130;&#209;&#139; &#208;&#188;&#208;&#181;&#208;&#180;&#208;&#184;&#209;&#134;&#208;&#184;&#208;&#189;&#209;&#129;&#208;&#186;&#208;&#190;&#208;&#179;&#208;&#190; &#208;&#190;&#208;&#177;&#208;&#190;&#209;&#128;&#209;&#131;&#208;&#180;&#208;&#190;&#208;&#178;&#208;&#176;&#208;&#189;&#208;&#184;&#209;&#143;" d="M-57.0684 199.738L-50.0664 188.781H-48.1816V203H-50.0664V192.033L-57.0684 203H-58.9434V188.781H-57.0684V199.738ZM-37.8594 197.014V198.479H-43.4453V197.014H-37.8594ZM-43.0645 192.434V203H-44.8711V192.434H-43.0645ZM-36.3945 192.434V203H-38.2109V192.434H-36.3945ZM-29.2559 201.711C-28.8262 201.711 -28.429 201.623 -28.0645 201.447C-27.6999 201.271 -27.4004 201.031 -27.166 200.725C-26.9316 200.412 -26.7982 200.057 -26.7656 199.66H-25.0469C-25.0794 200.285 -25.291 200.868 -25.6816 201.408C-26.0658 201.942 -26.5703 202.375 -27.1953 202.707C-27.8203 203.033 -28.5072 203.195 -29.2559 203.195C-30.0501 203.195 -30.7435 203.055 -31.3359 202.775C-31.9219 202.495 -32.4102 202.111 -32.8008 201.623C-33.1849 201.135 -33.4746 200.575 -33.6699 199.943C-33.8587 199.305 -33.9531 198.632 -33.9531 197.922V197.512C-33.9531 196.802 -33.8587 196.132 -33.6699 195.5C-33.4746 194.862 -33.1849 194.299 -32.8008 193.811C-32.4102 193.322 -31.9219 192.938 -31.3359 192.658C-30.7435 192.378 -30.0501 192.238 -29.2559 192.238C-28.429 192.238 -27.7064 192.408 -27.0879 192.746C-26.4694 193.078 -25.9844 193.534 -25.6328 194.113C-25.2747 194.686 -25.0794 195.337 -25.0469 196.066H-26.7656C-26.7982 195.63 -26.9219 195.236 -27.1367 194.885C-27.3451 194.533 -27.6315 194.253 -27.9961 194.045C-28.3542 193.83 -28.7741 193.723 -29.2559 193.723C-29.8092 193.723 -30.2747 193.833 -30.6523 194.055C-31.0234 194.27 -31.3197 194.562 -31.541 194.934C-31.7559 195.298 -31.9121 195.705 -32.0098 196.154C-32.1009 196.597 -32.1465 197.049 -32.1465 197.512V197.922C-32.1465 198.384 -32.1009 198.84 -32.0098 199.289C-31.9186 199.738 -31.7656 200.145 -31.5508 200.51C-31.3294 200.874 -31.0332 201.167 -30.6621 201.389C-30.2845 201.604 -29.8158 201.711 -29.2559 201.711ZM-18.709 192.434V203H-20.5254V192.434H-18.709ZM-15.1641 192.434V193.898H-24.002V192.434H-15.1641ZM-7.3125 201.193V195.754C-7.3125 195.337 -7.39714 194.976 -7.56641 194.67C-7.72917 194.357 -7.97656 194.117 -8.30859 193.947C-8.64062 193.778 -9.05078 193.693 -9.53906 193.693C-9.99479 193.693 -10.3952 193.771 -10.7402 193.928C-11.0788 194.084 -11.3457 194.289 -11.541 194.543C-11.7298 194.797 -11.8242 195.07 -11.8242 195.363H-13.6309C-13.6309 194.986 -13.5332 194.611 -13.3379 194.24C-13.1426 193.869 -12.8626 193.534 -12.498 193.234C-12.127 192.928 -11.6842 192.688 -11.1699 192.512C-10.6491 192.329 -10.0697 192.238 -9.43164 192.238C-8.66341 192.238 -7.98633 192.368 -7.40039 192.629C-6.80794 192.889 -6.3457 193.283 -6.01367 193.811C-5.67513 194.331 -5.50586 194.986 -5.50586 195.773V200.695C-5.50586 201.047 -5.47656 201.421 -5.41797 201.818C-5.35286 202.215 -5.25846 202.557 -5.13477 202.844V203H-7.01953C-7.11068 202.792 -7.18229 202.515 -7.23438 202.17C-7.28646 201.818 -7.3125 201.493 -7.3125 201.193ZM-7 196.594L-6.98047 197.863H-8.80664C-9.32096 197.863 -9.77995 197.906 -10.1836 197.99C-10.5872 198.068 -10.9258 198.189 -11.1992 198.352C-11.4727 198.514 -11.681 198.719 -11.8242 198.967C-11.9674 199.208 -12.0391 199.491 -12.0391 199.816C-12.0391 200.148 -11.9642 200.451 -11.8145 200.725C-11.6647 200.998 -11.4401 201.216 -11.1406 201.379C-10.8346 201.535 -10.4603 201.613 -10.0176 201.613C-9.46419 201.613 -8.97591 201.496 -8.55273 201.262C-8.12956 201.027 -7.79427 200.741 -7.54688 200.402C-7.29297 200.064 -7.15625 199.735 -7.13672 199.416L-6.36523 200.285C-6.41081 200.559 -6.53451 200.861 -6.73633 201.193C-6.93815 201.525 -7.20833 201.844 -7.54688 202.15C-7.87891 202.45 -8.27604 202.701 -8.73828 202.902C-9.19401 203.098 -9.70833 203.195 -10.2812 203.195C-10.9974 203.195 -11.6257 203.055 -12.166 202.775C-12.6999 202.495 -13.1165 202.121 -13.416 201.652C-13.709 201.177 -13.8555 200.646 -13.8555 200.061C-13.8555 199.494 -13.7448 198.996 -13.5234 198.566C-13.3021 198.13 -12.9831 197.769 -12.5664 197.482C-12.1497 197.189 -11.6484 196.968 -11.0625 196.818C-10.4766 196.669 -9.82227 196.594 -9.09961 196.594H-7ZM4.39648 192.434V193.928H-0.710938V192.434H4.39648ZM5.98828 192.434V203H4.18164V192.434H5.98828ZM-1.15039 192.434H0.666016L0.392578 197.531C0.347005 198.319 0.272135 199.016 0.167969 199.621C0.0703125 200.22 -0.0664062 200.734 -0.242188 201.164C-0.411458 201.594 -0.626302 201.945 -0.886719 202.219C-1.14062 202.486 -1.44661 202.684 -1.80469 202.814C-2.16276 202.938 -2.57617 203 -3.04492 203H-3.61133V201.408L-3.2207 201.379C-2.94076 201.359 -2.70312 201.294 -2.50781 201.184C-2.30599 201.073 -2.13672 200.91 -2 200.695C-1.86328 200.474 -1.7526 200.191 -1.66797 199.846C-1.57682 199.501 -1.50846 199.09 -1.46289 198.615C-1.41081 198.14 -1.37174 197.587 -1.3457 196.955L-1.15039 192.434ZM15.959 192.434V193.928H10.8516V192.434H15.959ZM17.5508 192.434V203H15.7441V192.434H17.5508ZM10.4121 192.434H12.2285L11.9551 197.531C11.9095 198.319 11.8346 199.016 11.7305 199.621C11.6328 200.22 11.4961 200.734 11.3203 201.164C11.151 201.594 10.9362 201.945 10.6758 202.219C10.4219 202.486 10.1159 202.684 9.75781 202.814C9.39974 202.938 8.98633 203 8.51758 203H7.95117V201.408L8.3418 201.379C8.62174 201.359 8.85938 201.294 9.05469 201.184C9.25651 201.073 9.42578 200.91 9.5625 200.695C9.69922 200.474 9.8099 200.191 9.89453 199.846C9.98568 199.501 10.054 199.09 10.0996 198.615C10.1517 198.14 10.1908 197.587 10.2168 196.955L10.4121 192.434ZM22.5996 197.961H24.5527L21.4961 203H19.543L22.5996 197.961ZM24.1133 192.434H28.5273V203H26.7207V193.898H24.1133C23.599 193.898 23.179 193.986 22.8535 194.162C22.528 194.331 22.2904 194.553 22.1406 194.826C21.9909 195.1 21.916 195.383 21.916 195.676C21.916 195.962 21.9844 196.239 22.1211 196.506C22.2578 196.766 22.4727 196.981 22.7656 197.15C23.0586 197.32 23.4362 197.404 23.8984 197.404H27.209V198.889H23.8984C23.293 198.889 22.7559 198.807 22.2871 198.645C21.8184 198.482 21.4212 198.257 21.0957 197.971C20.7702 197.678 20.5228 197.336 20.3535 196.945C20.1842 196.548 20.0996 196.118 20.0996 195.656C20.0996 195.194 20.1875 194.768 20.3633 194.377C20.5456 193.986 20.806 193.645 21.1445 193.352C21.4896 193.059 21.9095 192.834 22.4043 192.678C22.9056 192.515 23.4753 192.434 24.1133 192.434ZM31.5938 203V192.434H33.4004V201.516H38.2637V192.434H40.0801V203H31.5938ZM41.3301 201.516L41.1543 206.135H39.543V203H38.166V201.516H41.3301ZM45.2461 200.139L50.1191 192.434H51.9355V203H50.1191V195.295L45.2461 203H43.4492V192.434H45.2461V200.139ZM56.9746 197.961H58.9277L55.8711 203H53.918L56.9746 197.961ZM58.4883 192.434H62.9023V203H61.0957V193.898H58.4883C57.974 193.898 57.554 193.986 57.2285 194.162C56.903 194.331 56.6654 194.553 56.5156 194.826C56.3659 195.1 56.291 195.383 56.291 195.676C56.291 195.962 56.3594 196.239 56.4961 196.506C56.6328 196.766 56.8477 196.981 57.1406 197.15C57.4336 197.32 57.8112 197.404 58.2734 197.404H61.584V198.889H58.2734C57.668 198.889 57.1309 198.807 56.6621 198.645C56.1934 198.482 55.7962 198.257 55.4707 197.971C55.1452 197.678 54.8978 197.336 54.7285 196.945C54.5592 196.548 54.4746 196.118 54.4746 195.656C54.4746 195.194 54.5625 194.768 54.7383 194.377C54.9206 193.986 55.181 193.645 55.5195 193.352C55.8646 193.059 56.2845 192.834 56.7793 192.678C57.2806 192.515 57.8503 192.434 58.4883 192.434ZM72.7266 200.139L77.5996 192.434H79.416V203H77.5996V195.295L72.7266 203H70.9297V192.434H72.7266V200.139ZM94.3184 192.434V193.928H88.9766V192.434H94.3184ZM89.2402 192.434V203H87.4336V192.434H89.2402ZM95.9199 192.434V203H94.1035V192.434H95.9199ZM101.789 201.906L104.729 192.434H106.662L102.424 204.631C102.326 204.891 102.196 205.171 102.033 205.471C101.877 205.777 101.675 206.066 101.428 206.34C101.18 206.613 100.881 206.835 100.529 207.004C100.184 207.18 99.7708 207.268 99.2891 207.268C99.1458 207.268 98.9635 207.248 98.7422 207.209C98.5208 207.17 98.3646 207.137 98.2734 207.111L98.2637 205.646C98.3158 205.653 98.3971 205.66 98.5078 205.666C98.625 205.679 98.7064 205.686 98.752 205.686C99.1621 205.686 99.5104 205.63 99.7969 205.52C100.083 205.415 100.324 205.236 100.52 204.982C100.721 204.735 100.894 204.393 101.037 203.957L101.789 201.906ZM99.6309 192.434L102.375 200.637L102.844 202.541L101.545 203.205L97.6582 192.434H99.6309ZM112.385 201.711C112.814 201.711 113.212 201.623 113.576 201.447C113.941 201.271 114.24 201.031 114.475 200.725C114.709 200.412 114.842 200.057 114.875 199.66H116.594C116.561 200.285 116.35 200.868 115.959 201.408C115.575 201.942 115.07 202.375 114.445 202.707C113.82 203.033 113.133 203.195 112.385 203.195C111.59 203.195 110.897 203.055 110.305 202.775C109.719 202.495 109.23 202.111 108.84 201.623C108.456 201.135 108.166 200.575 107.971 199.943C107.782 199.305 107.688 198.632 107.688 197.922V197.512C107.688 196.802 107.782 196.132 107.971 195.5C108.166 194.862 108.456 194.299 108.84 193.811C109.23 193.322 109.719 192.938 110.305 192.658C110.897 192.378 111.59 192.238 112.385 192.238C113.212 192.238 113.934 192.408 114.553 192.746C115.171 193.078 115.656 193.534 116.008 194.113C116.366 194.686 116.561 195.337 116.594 196.066H114.875C114.842 195.63 114.719 195.236 114.504 194.885C114.296 194.533 114.009 194.253 113.645 194.045C113.286 193.83 112.867 193.723 112.385 193.723C111.831 193.723 111.366 193.833 110.988 194.055C110.617 194.27 110.321 194.562 110.1 194.934C109.885 195.298 109.729 195.705 109.631 196.154C109.54 196.597 109.494 197.049 109.494 197.512V197.922C109.494 198.384 109.54 198.84 109.631 199.289C109.722 199.738 109.875 200.145 110.09 200.51C110.311 200.874 110.607 201.167 110.979 201.389C111.356 201.604 111.825 201.711 112.385 201.711ZM120.588 192.434V203H118.781V192.434H120.588ZM127.521 192.434L122.512 198.488H119.982L119.709 196.906H121.779L125.324 192.434H127.521ZM125.578 203L121.691 198.215L122.854 196.906L127.873 203H125.578ZM128.752 197.834V197.609C128.752 196.848 128.863 196.141 129.084 195.49C129.305 194.833 129.624 194.263 130.041 193.781C130.458 193.293 130.962 192.915 131.555 192.648C132.147 192.375 132.811 192.238 133.547 192.238C134.289 192.238 134.956 192.375 135.549 192.648C136.148 192.915 136.656 193.293 137.072 193.781C137.495 194.263 137.818 194.833 138.039 195.49C138.26 196.141 138.371 196.848 138.371 197.609V197.834C138.371 198.596 138.26 199.302 138.039 199.953C137.818 200.604 137.495 201.174 137.072 201.662C136.656 202.144 136.151 202.521 135.559 202.795C134.973 203.062 134.309 203.195 133.566 203.195C132.824 203.195 132.157 203.062 131.564 202.795C130.972 202.521 130.464 202.144 130.041 201.662C129.624 201.174 129.305 200.604 129.084 199.953C128.863 199.302 128.752 198.596 128.752 197.834ZM130.559 197.609V197.834C130.559 198.361 130.62 198.859 130.744 199.328C130.868 199.79 131.053 200.201 131.301 200.559C131.555 200.917 131.87 201.2 132.248 201.408C132.626 201.61 133.065 201.711 133.566 201.711C134.061 201.711 134.494 201.61 134.865 201.408C135.243 201.2 135.555 200.917 135.803 200.559C136.05 200.201 136.236 199.79 136.359 199.328C136.49 198.859 136.555 198.361 136.555 197.834V197.609C136.555 197.089 136.49 196.597 136.359 196.135C136.236 195.666 136.047 195.253 135.793 194.895C135.546 194.53 135.233 194.243 134.855 194.035C134.484 193.827 134.048 193.723 133.547 193.723C133.052 193.723 132.616 193.827 132.238 194.035C131.867 194.243 131.555 194.53 131.301 194.895C131.053 195.253 130.868 195.666 130.744 196.135C130.62 196.597 130.559 197.089 130.559 197.609ZM144.396 196.213V197.697H139.631V196.213H144.396ZM153.332 197.014V198.479H147.746V197.014H153.332ZM148.127 192.434V203H146.32V192.434H148.127ZM154.797 192.434V203H152.98V192.434H154.797ZM163.938 201.193V195.754C163.938 195.337 163.853 194.976 163.684 194.67C163.521 194.357 163.273 194.117 162.941 193.947C162.609 193.778 162.199 193.693 161.711 193.693C161.255 193.693 160.855 193.771 160.51 193.928C160.171 194.084 159.904 194.289 159.709 194.543C159.52 194.797 159.426 195.07 159.426 195.363H157.619C157.619 194.986 157.717 194.611 157.912 194.24C158.107 193.869 158.387 193.534 158.752 193.234C159.123 192.928 159.566 192.688 160.08 192.512C160.601 192.329 161.18 192.238 161.818 192.238C162.587 192.238 163.264 192.368 163.85 192.629C164.442 192.889 164.904 193.283 165.236 193.811C165.575 194.331 165.744 194.986 165.744 195.773V200.695C165.744 201.047 165.773 201.421 165.832 201.818C165.897 202.215 165.992 202.557 166.115 202.844V203H164.23C164.139 202.792 164.068 202.515 164.016 202.17C163.964 201.818 163.938 201.493 163.938 201.193ZM164.25 196.594L164.27 197.863H162.443C161.929 197.863 161.47 197.906 161.066 197.99C160.663 198.068 160.324 198.189 160.051 198.352C159.777 198.514 159.569 198.719 159.426 198.967C159.283 199.208 159.211 199.491 159.211 199.816C159.211 200.148 159.286 200.451 159.436 200.725C159.585 200.998 159.81 201.216 160.109 201.379C160.415 201.535 160.79 201.613 161.232 201.613C161.786 201.613 162.274 201.496 162.697 201.262C163.12 201.027 163.456 200.741 163.703 200.402C163.957 200.064 164.094 199.735 164.113 199.416L164.885 200.285C164.839 200.559 164.715 200.861 164.514 201.193C164.312 201.525 164.042 201.844 163.703 202.15C163.371 202.45 162.974 202.701 162.512 202.902C162.056 203.098 161.542 203.195 160.969 203.195C160.253 203.195 159.624 203.055 159.084 202.775C158.55 202.495 158.133 202.121 157.834 201.652C157.541 201.177 157.395 200.646 157.395 200.061C157.395 199.494 157.505 198.996 157.727 198.566C157.948 198.13 158.267 197.769 158.684 197.482C159.1 197.189 159.602 196.968 160.188 196.818C160.773 196.669 161.428 196.594 162.15 196.594H164.25ZM175.646 192.434V193.928H170.539V192.434H175.646ZM177.238 192.434V203H175.432V192.434H177.238ZM170.1 192.434H171.916L171.643 197.531C171.597 198.319 171.522 199.016 171.418 199.621C171.32 200.22 171.184 200.734 171.008 201.164C170.839 201.594 170.624 201.945 170.363 202.219C170.109 202.486 169.803 202.684 169.445 202.814C169.087 202.938 168.674 203 168.205 203H167.639V201.408L168.029 201.379C168.309 201.359 168.547 201.294 168.742 201.184C168.944 201.073 169.113 200.91 169.25 200.695C169.387 200.474 169.497 200.191 169.582 199.846C169.673 199.501 169.742 199.09 169.787 198.615C169.839 198.14 169.878 197.587 169.904 196.955L170.1 192.434ZM186.379 201.193V195.754C186.379 195.337 186.294 194.976 186.125 194.67C185.962 194.357 185.715 194.117 185.383 193.947C185.051 193.778 184.641 193.693 184.152 193.693C183.697 193.693 183.296 193.771 182.951 193.928C182.613 194.084 182.346 194.289 182.15 194.543C181.962 194.797 181.867 195.07 181.867 195.363H180.061C180.061 194.986 180.158 194.611 180.354 194.24C180.549 193.869 180.829 193.534 181.193 193.234C181.564 192.928 182.007 192.688 182.521 192.512C183.042 192.329 183.622 192.238 184.26 192.238C185.028 192.238 185.705 192.368 186.291 192.629C186.883 192.889 187.346 193.283 187.678 193.811C188.016 194.331 188.186 194.986 188.186 195.773V200.695C188.186 201.047 188.215 201.421 188.273 201.818C188.339 202.215 188.433 202.557 188.557 202.844V203H186.672C186.581 202.792 186.509 202.515 186.457 202.17C186.405 201.818 186.379 201.493 186.379 201.193ZM186.691 196.594L186.711 197.863H184.885C184.37 197.863 183.911 197.906 183.508 197.99C183.104 198.068 182.766 198.189 182.492 198.352C182.219 198.514 182.01 198.719 181.867 198.967C181.724 199.208 181.652 199.491 181.652 199.816C181.652 200.148 181.727 200.451 181.877 200.725C182.027 200.998 182.251 201.216 182.551 201.379C182.857 201.535 183.231 201.613 183.674 201.613C184.227 201.613 184.715 201.496 185.139 201.262C185.562 201.027 185.897 200.741 186.145 200.402C186.398 200.064 186.535 199.735 186.555 199.416L187.326 200.285C187.281 200.559 187.157 200.861 186.955 201.193C186.753 201.525 186.483 201.844 186.145 202.15C185.812 202.45 185.415 202.701 184.953 202.902C184.497 203.098 183.983 203.195 183.41 203.195C182.694 203.195 182.066 203.055 181.525 202.775C180.992 202.495 180.575 202.121 180.275 201.652C179.982 201.177 179.836 200.646 179.836 200.061C179.836 199.494 179.947 198.996 180.168 198.566C180.389 198.13 180.708 197.769 181.125 197.482C181.542 197.189 182.043 196.968 182.629 196.818C183.215 196.669 183.869 196.594 184.592 196.594H186.691ZM192.932 192.434H194.738L194.582 196.389C194.543 197.391 194.429 198.257 194.24 198.986C194.051 199.715 193.811 200.337 193.518 200.852C193.225 201.359 192.896 201.786 192.531 202.131C192.173 202.476 191.802 202.766 191.418 203H190.52L190.568 201.525L190.939 201.516C191.154 201.262 191.363 201.001 191.564 200.734C191.766 200.461 191.952 200.139 192.121 199.768C192.29 199.39 192.43 198.931 192.541 198.391C192.658 197.844 192.733 197.176 192.766 196.389L192.932 192.434ZM193.381 192.434H199.738V203H197.932V194.104H193.381V192.434ZM190.109 201.516H201.096V206.115H199.289V203H191.916V206.115H190.1L190.109 201.516ZM202.619 197.834V197.609C202.619 196.848 202.73 196.141 202.951 195.49C203.173 194.833 203.492 194.263 203.908 193.781C204.325 193.293 204.829 192.915 205.422 192.648C206.014 192.375 206.678 192.238 207.414 192.238C208.156 192.238 208.824 192.375 209.416 192.648C210.015 192.915 210.523 193.293 210.939 193.781C211.363 194.263 211.685 194.833 211.906 195.49C212.128 196.141 212.238 196.848 212.238 197.609V197.834C212.238 198.596 212.128 199.302 211.906 199.953C211.685 200.604 211.363 201.174 210.939 201.662C210.523 202.144 210.018 202.521 209.426 202.795C208.84 203.062 208.176 203.195 207.434 203.195C206.691 203.195 206.024 203.062 205.432 202.795C204.839 202.521 204.331 202.144 203.908 201.662C203.492 201.174 203.173 200.604 202.951 199.953C202.73 199.302 202.619 198.596 202.619 197.834ZM204.426 197.609V197.834C204.426 198.361 204.488 198.859 204.611 199.328C204.735 199.79 204.921 200.201 205.168 200.559C205.422 200.917 205.738 201.2 206.115 201.408C206.493 201.61 206.932 201.711 207.434 201.711C207.928 201.711 208.361 201.61 208.732 201.408C209.11 201.2 209.423 200.917 209.67 200.559C209.917 200.201 210.103 199.79 210.227 199.328C210.357 198.859 210.422 198.361 210.422 197.834V197.609C210.422 197.089 210.357 196.597 210.227 196.135C210.103 195.666 209.914 195.253 209.66 194.895C209.413 194.53 209.1 194.243 208.723 194.035C208.352 193.827 207.915 193.723 207.414 193.723C206.919 193.723 206.483 193.827 206.105 194.035C205.734 194.243 205.422 194.53 205.168 194.895C204.921 195.253 204.735 195.666 204.611 196.135C204.488 196.597 204.426 197.089 204.426 197.609ZM222.473 192.434V203H220.666V192.434H222.473ZM221.857 197.287V198.771C221.493 198.908 221.122 199.032 220.744 199.143C220.373 199.247 219.979 199.331 219.562 199.396C219.152 199.455 218.706 199.484 218.225 199.484C217.391 199.484 216.669 199.341 216.057 199.055C215.445 198.762 214.973 198.322 214.641 197.736C214.309 197.144 214.143 196.398 214.143 195.5V192.414H215.949V195.5C215.949 196.086 216.037 196.561 216.213 196.926C216.389 197.29 216.646 197.561 216.984 197.736C217.323 197.906 217.736 197.99 218.225 197.99C218.693 197.99 219.133 197.961 219.543 197.902C219.96 197.837 220.357 197.753 220.734 197.648C221.118 197.544 221.493 197.424 221.857 197.287ZM232.551 197.014V198.479H226.965V197.014H232.551ZM227.346 192.434V203H225.539V192.434H227.346ZM234.016 192.434V203H232.199V192.434H234.016ZM238.41 196.066H241.584C242.437 196.066 243.156 196.216 243.742 196.516C244.328 196.809 244.771 197.215 245.07 197.736C245.376 198.251 245.529 198.837 245.529 199.494C245.529 199.982 245.445 200.441 245.275 200.871C245.106 201.294 244.852 201.665 244.514 201.984C244.182 202.303 243.768 202.554 243.273 202.736C242.785 202.912 242.222 203 241.584 203H237.092V192.434H238.898V201.516H241.584C242.105 201.516 242.521 201.421 242.834 201.232C243.146 201.044 243.371 200.799 243.508 200.5C243.645 200.201 243.713 199.888 243.713 199.562C243.713 199.243 243.645 198.931 243.508 198.625C243.371 198.319 243.146 198.065 242.834 197.863C242.521 197.655 242.105 197.551 241.584 197.551H238.41V196.066ZM249.289 192.434V203H247.482V192.434H249.289ZM256.838 203.195C256.102 203.195 255.435 203.072 254.836 202.824C254.243 202.57 253.732 202.215 253.303 201.76C252.88 201.304 252.554 200.764 252.326 200.139C252.098 199.514 251.984 198.83 251.984 198.088V197.678C251.984 196.818 252.111 196.053 252.365 195.383C252.619 194.706 252.964 194.133 253.4 193.664C253.837 193.195 254.331 192.84 254.885 192.6C255.438 192.359 256.011 192.238 256.604 192.238C257.359 192.238 258.01 192.368 258.557 192.629C259.11 192.889 259.562 193.254 259.914 193.723C260.266 194.185 260.526 194.732 260.695 195.363C260.865 195.988 260.949 196.672 260.949 197.414V198.225H253.059V196.75H259.143V196.613C259.117 196.145 259.019 195.689 258.85 195.246C258.687 194.803 258.426 194.439 258.068 194.152C257.71 193.866 257.222 193.723 256.604 193.723C256.193 193.723 255.816 193.811 255.471 193.986C255.126 194.156 254.829 194.41 254.582 194.748C254.335 195.087 254.143 195.5 254.006 195.988C253.869 196.477 253.801 197.04 253.801 197.678V198.088C253.801 198.589 253.869 199.061 254.006 199.504C254.149 199.94 254.354 200.324 254.621 200.656C254.895 200.988 255.223 201.249 255.607 201.438C255.998 201.626 256.441 201.721 256.936 201.721C257.574 201.721 258.114 201.59 258.557 201.33C258.999 201.07 259.387 200.721 259.719 200.285L260.812 201.154C260.585 201.499 260.295 201.828 259.943 202.141C259.592 202.453 259.159 202.707 258.645 202.902C258.137 203.098 257.535 203.195 256.838 203.195ZM-1.60938 217.465V230.062H-3.42578V215.434H-1.76562L-1.60938 217.465ZM5.50977 220.629V220.834C5.50977 221.602 5.41862 222.315 5.23633 222.973C5.05404 223.624 4.78711 224.19 4.43555 224.672C4.09049 225.154 3.66406 225.528 3.15625 225.795C2.64844 226.062 2.06576 226.195 1.4082 226.195C0.73763 226.195 0.145182 226.085 -0.369141 225.863C-0.883464 225.642 -1.31966 225.32 -1.67773 224.896C-2.03581 224.473 -2.32227 223.965 -2.53711 223.373C-2.74544 222.781 -2.88867 222.113 -2.9668 221.371V220.277C-2.88867 219.496 -2.74219 218.796 -2.52734 218.178C-2.3125 217.559 -2.0293 217.032 -1.67773 216.596C-1.31966 216.153 -0.886719 215.818 -0.378906 215.59C0.128906 215.355 0.714844 215.238 1.37891 215.238C2.04297 215.238 2.63216 215.368 3.14648 215.629C3.66081 215.883 4.09375 216.247 4.44531 216.723C4.79688 217.198 5.06055 217.768 5.23633 218.432C5.41862 219.089 5.50977 219.822 5.50977 220.629ZM3.69336 220.834V220.629C3.69336 220.102 3.63802 219.607 3.52734 219.145C3.41667 218.676 3.24414 218.266 3.00977 217.914C2.7819 217.556 2.48893 217.276 2.13086 217.074C1.77279 216.866 1.34635 216.762 0.851562 216.762C0.395833 216.762 -0.00130208 216.84 -0.339844 216.996C-0.671875 217.152 -0.955078 217.364 -1.18945 217.631C-1.42383 217.891 -1.61589 218.191 -1.76562 218.529C-1.90885 218.861 -2.01628 219.206 -2.08789 219.564V222.094C-1.95768 222.549 -1.77539 222.979 -1.54102 223.383C-1.30664 223.78 -0.994141 224.102 -0.603516 224.35C-0.212891 224.59 0.278646 224.711 0.871094 224.711C1.35938 224.711 1.7793 224.61 2.13086 224.408C2.48893 224.2 2.7819 223.917 3.00977 223.559C3.24414 223.201 3.41667 222.79 3.52734 222.328C3.63802 221.859 3.69336 221.361 3.69336 220.834ZM14.0449 224.193V218.754C14.0449 218.337 13.9603 217.976 13.791 217.67C13.6283 217.357 13.3809 217.117 13.0488 216.947C12.7168 216.778 12.3066 216.693 11.8184 216.693C11.3626 216.693 10.9622 216.771 10.6172 216.928C10.2786 217.084 10.0117 217.289 9.81641 217.543C9.6276 217.797 9.5332 218.07 9.5332 218.363H7.72656C7.72656 217.986 7.82422 217.611 8.01953 217.24C8.21484 216.869 8.49479 216.534 8.85938 216.234C9.23047 215.928 9.67318 215.688 10.1875 215.512C10.7083 215.329 11.2878 215.238 11.9258 215.238C12.694 215.238 13.3711 215.368 13.957 215.629C14.5495 215.889 15.0117 216.283 15.3438 216.811C15.6823 217.331 15.8516 217.986 15.8516 218.773V223.695C15.8516 224.047 15.8809 224.421 15.9395 224.818C16.0046 225.215 16.099 225.557 16.2227 225.844V226H14.3379C14.2467 225.792 14.1751 225.515 14.123 225.17C14.071 224.818 14.0449 224.493 14.0449 224.193ZM14.3574 219.594L14.377 220.863H12.5508C12.0365 220.863 11.5775 220.906 11.1738 220.99C10.7702 221.068 10.4316 221.189 10.1582 221.352C9.88477 221.514 9.67643 221.719 9.5332 221.967C9.38997 222.208 9.31836 222.491 9.31836 222.816C9.31836 223.148 9.39323 223.451 9.54297 223.725C9.69271 223.998 9.91732 224.216 10.2168 224.379C10.5228 224.535 10.8971 224.613 11.3398 224.613C11.8932 224.613 12.3815 224.496 12.8047 224.262C13.2279 224.027 13.5632 223.741 13.8105 223.402C14.0645 223.064 14.2012 222.735 14.2207 222.416L14.9922 223.285C14.9466 223.559 14.8229 223.861 14.6211 224.193C14.4193 224.525 14.1491 224.844 13.8105 225.15C13.4785 225.45 13.0814 225.701 12.6191 225.902C12.1634 226.098 11.6491 226.195 11.0762 226.195C10.36 226.195 9.73177 226.055 9.19141 225.775C8.65755 225.495 8.24089 225.121 7.94141 224.652C7.64844 224.177 7.50195 223.646 7.50195 223.061C7.50195 222.494 7.61263 221.996 7.83398 221.566C8.05534 221.13 8.37435 220.769 8.79102 220.482C9.20768 220.189 9.70898 219.968 10.2949 219.818C10.8809 219.669 11.5352 219.594 12.2578 219.594H14.3574ZM25.4707 210.834H26.9551C26.9551 211.472 26.8574 211.98 26.6621 212.357C26.4668 212.729 26.1999 213.015 25.8613 213.217C25.5293 213.419 25.1517 213.572 24.7285 213.676C24.3118 213.78 23.8789 213.881 23.4297 213.979C22.8698 214.096 22.349 214.281 21.8672 214.535C21.3919 214.783 20.9818 215.134 20.6367 215.59C20.2982 216.046 20.0475 216.638 19.8848 217.367C19.7285 218.096 19.6862 218.998 19.7578 220.072V220.971H18.2734V220.072C18.2734 218.868 18.3874 217.816 18.6152 216.918C18.8496 216.02 19.1784 215.261 19.6016 214.643C20.0247 214.024 20.526 213.533 21.1055 213.168C21.6914 212.803 22.3359 212.553 23.0391 212.416C23.5469 212.318 23.9831 212.214 24.3477 212.104C24.7122 211.986 24.9889 211.83 25.1777 211.635C25.373 211.439 25.4707 211.173 25.4707 210.834ZM23.332 216.039C24.0221 216.039 24.6374 216.16 25.1777 216.4C25.7181 216.641 26.1771 216.977 26.5547 217.406C26.9323 217.836 27.2188 218.344 27.4141 218.93C27.6159 219.509 27.7168 220.141 27.7168 220.824V221.039C27.7168 221.775 27.6094 222.458 27.3945 223.09C27.1862 223.715 26.877 224.262 26.4668 224.73C26.0632 225.193 25.5684 225.554 24.9824 225.814C24.403 226.075 23.7422 226.205 23 226.205C22.2578 226.205 21.5938 226.075 21.0078 225.814C20.4284 225.554 19.9336 225.193 19.5234 224.73C19.1133 224.262 18.8008 223.715 18.5859 223.09C18.3776 222.458 18.2734 221.775 18.2734 221.039V220.824C18.2734 220.661 18.3027 220.502 18.3613 220.346C18.4199 220.189 18.4915 220.03 18.5762 219.867C18.6673 219.704 18.7487 219.532 18.8203 219.35C19.0612 218.764 19.39 218.22 19.8066 217.719C20.2298 217.217 20.7344 216.814 21.3203 216.508C21.9128 216.195 22.5833 216.039 23.332 216.039ZM22.9805 217.514C22.3164 217.514 21.7695 217.667 21.3398 217.973C20.9167 218.279 20.6009 218.686 20.3926 219.193C20.1842 219.695 20.0801 220.238 20.0801 220.824V221.039C20.0801 221.534 20.1387 222.003 20.2559 222.445C20.373 222.888 20.5488 223.282 20.7832 223.627C21.0241 223.965 21.3268 224.232 21.6914 224.428C22.0625 224.623 22.4987 224.721 23 224.721C23.5013 224.721 23.9342 224.623 24.2988 224.428C24.6634 224.232 24.9629 223.965 25.1973 223.627C25.4316 223.282 25.6074 222.888 25.7246 222.445C25.8418 222.003 25.9004 221.534 25.9004 221.039V220.824C25.9004 220.382 25.8418 219.962 25.7246 219.564C25.6074 219.167 25.4284 218.816 25.1875 218.51C24.9531 218.204 24.6504 217.963 24.2793 217.787C23.9147 217.605 23.4818 217.514 22.9805 217.514ZM29.2891 220.834V220.609C29.2891 219.848 29.3997 219.141 29.6211 218.49C29.8424 217.833 30.1615 217.263 30.5781 216.781C30.9948 216.293 31.4993 215.915 32.0918 215.648C32.6842 215.375 33.3483 215.238 34.084 215.238C34.8262 215.238 35.4935 215.375 36.0859 215.648C36.6849 215.915 37.1927 216.293 37.6094 216.781C38.0326 217.263 38.3548 217.833 38.5762 218.49C38.7975 219.141 38.9082 219.848 38.9082 220.609V220.834C38.9082 221.596 38.7975 222.302 38.5762 222.953C38.3548 223.604 38.0326 224.174 37.6094 224.662C37.1927 225.144 36.6882 225.521 36.0957 225.795C35.5098 226.062 34.8457 226.195 34.1035 226.195C33.3613 226.195 32.694 226.062 32.1016 225.795C31.5091 225.521 31.0013 225.144 30.5781 224.662C30.1615 224.174 29.8424 223.604 29.6211 222.953C29.3997 222.302 29.2891 221.596 29.2891 220.834ZM31.0957 220.609V220.834C31.0957 221.361 31.1576 221.859 31.2812 222.328C31.4049 222.79 31.5905 223.201 31.8379 223.559C32.0918 223.917 32.4076 224.2 32.7852 224.408C33.1628 224.61 33.6022 224.711 34.1035 224.711C34.5983 224.711 35.0312 224.61 35.4023 224.408C35.7799 224.2 36.0924 223.917 36.3398 223.559C36.5872 223.201 36.7728 222.79 36.8965 222.328C37.0267 221.859 37.0918 221.361 37.0918 220.834V220.609C37.0918 220.089 37.0267 219.597 36.8965 219.135C36.7728 218.666 36.584 218.253 36.3301 217.895C36.0827 217.53 35.7702 217.243 35.3926 217.035C35.0215 216.827 34.5853 216.723 34.084 216.723C33.5892 216.723 33.153 216.827 32.7754 217.035C32.4043 217.243 32.0918 217.53 31.8379 217.895C31.5905 218.253 31.4049 218.666 31.2812 219.135C31.1576 219.597 31.0957 220.089 31.0957 220.609ZM45.2656 215.434V226H43.4492V215.434H45.2656ZM48.8105 215.434V216.898H39.9727V215.434H48.8105ZM52.0723 219.066H55.2461C56.099 219.066 56.8184 219.216 57.4043 219.516C57.9902 219.809 58.4329 220.215 58.7324 220.736C59.0384 221.251 59.1914 221.837 59.1914 222.494C59.1914 222.982 59.1068 223.441 58.9375 223.871C58.7682 224.294 58.5143 224.665 58.1758 224.984C57.8438 225.303 57.4303 225.554 56.9355 225.736C56.4473 225.912 55.8841 226 55.2461 226H50.7539V215.434H52.5605V224.516H55.2461C55.7669 224.516 56.1836 224.421 56.4961 224.232C56.8086 224.044 57.0332 223.799 57.1699 223.5C57.3066 223.201 57.375 222.888 57.375 222.562C57.375 222.243 57.3066 221.931 57.1699 221.625C57.0332 221.319 56.8086 221.065 56.4961 220.863C56.1836 220.655 55.7669 220.551 55.2461 220.551H52.0723V219.066ZM62.9512 215.434V226H61.1445V215.434H62.9512ZM77.1504 223.598L80.7441 215.434H82.4824L77.7754 226H76.5254L71.8379 215.434H73.5762L77.1504 223.598ZM73.0488 215.434V226H71.2422V215.434H73.0488ZM81.1934 226V215.434H83.0098V226H81.1934ZM90.3047 226.195C89.569 226.195 88.9017 226.072 88.3027 225.824C87.7103 225.57 87.1992 225.215 86.7695 224.76C86.3464 224.304 86.0208 223.764 85.793 223.139C85.5651 222.514 85.4512 221.83 85.4512 221.088V220.678C85.4512 219.818 85.5781 219.053 85.832 218.383C86.0859 217.706 86.431 217.133 86.8672 216.664C87.3034 216.195 87.7982 215.84 88.3516 215.6C88.9049 215.359 89.4779 215.238 90.0703 215.238C90.8255 215.238 91.4766 215.368 92.0234 215.629C92.5768 215.889 93.0293 216.254 93.3809 216.723C93.7324 217.185 93.9928 217.732 94.1621 218.363C94.3314 218.988 94.416 219.672 94.416 220.414V221.225H86.5254V219.75H92.6094V219.613C92.5833 219.145 92.4857 218.689 92.3164 218.246C92.1536 217.803 91.8932 217.439 91.5352 217.152C91.1771 216.866 90.6888 216.723 90.0703 216.723C89.6602 216.723 89.2826 216.811 88.9375 216.986C88.5924 217.156 88.2962 217.41 88.0488 217.748C87.8014 218.087 87.6094 218.5 87.4727 218.988C87.3359 219.477 87.2676 220.04 87.2676 220.678V221.088C87.2676 221.589 87.3359 222.061 87.4727 222.504C87.6159 222.94 87.821 223.324 88.0879 223.656C88.3613 223.988 88.6901 224.249 89.0742 224.438C89.4648 224.626 89.9076 224.721 90.4023 224.721C91.0404 224.721 91.5807 224.59 92.0234 224.33C92.4661 224.07 92.8535 223.721 93.1855 223.285L94.2793 224.154C94.0514 224.499 93.7617 224.828 93.4102 225.141C93.0586 225.453 92.6257 225.707 92.1113 225.902C91.6035 226.098 91.0013 226.195 90.3047 226.195ZM98.4297 215.434H100.236L100.08 219.389C100.041 220.391 99.9271 221.257 99.7383 221.986C99.5495 222.715 99.3086 223.337 99.0156 223.852C98.7227 224.359 98.3939 224.786 98.0293 225.131C97.6712 225.476 97.3001 225.766 96.916 226H96.0176L96.0664 224.525L96.4375 224.516C96.6523 224.262 96.8607 224.001 97.0625 223.734C97.2643 223.461 97.4499 223.139 97.6191 222.768C97.7884 222.39 97.9284 221.931 98.0391 221.391C98.1562 220.844 98.2311 220.176 98.2637 219.389L98.4297 215.434ZM98.8789 215.434H105.236V226H103.43V217.104H98.8789V215.434ZM95.6074 224.516H106.594V229.115H104.787V226H97.4141V229.115H95.5977L95.6074 224.516ZM110.549 223.139L115.422 215.434H117.238V226H115.422V218.295L110.549 226H108.752V215.434H110.549V223.139ZM120.295 226V215.434H122.102V224.516H126.965V215.434H128.781V226H120.295ZM130.031 224.516L129.855 229.135H128.244V226H126.867V224.516H130.031ZM133.947 223.139L138.82 215.434H140.637V226H138.82V218.295L133.947 226H132.15V215.434H133.947V223.139ZM150.705 220.014V221.479H145.119V220.014H150.705ZM145.5 215.434V226H143.693V215.434H145.5ZM152.17 215.434V226H150.354V215.434H152.17ZM159.309 224.711C159.738 224.711 160.135 224.623 160.5 224.447C160.865 224.271 161.164 224.031 161.398 223.725C161.633 223.412 161.766 223.057 161.799 222.66H163.518C163.485 223.285 163.273 223.868 162.883 224.408C162.499 224.942 161.994 225.375 161.369 225.707C160.744 226.033 160.057 226.195 159.309 226.195C158.514 226.195 157.821 226.055 157.229 225.775C156.643 225.495 156.154 225.111 155.764 224.623C155.38 224.135 155.09 223.575 154.895 222.943C154.706 222.305 154.611 221.632 154.611 220.922V220.512C154.611 219.802 154.706 219.132 154.895 218.5C155.09 217.862 155.38 217.299 155.764 216.811C156.154 216.322 156.643 215.938 157.229 215.658C157.821 215.378 158.514 215.238 159.309 215.238C160.135 215.238 160.858 215.408 161.477 215.746C162.095 216.078 162.58 216.534 162.932 217.113C163.29 217.686 163.485 218.337 163.518 219.066H161.799C161.766 218.63 161.643 218.236 161.428 217.885C161.219 217.533 160.933 217.253 160.568 217.045C160.21 216.83 159.79 216.723 159.309 216.723C158.755 216.723 158.29 216.833 157.912 217.055C157.541 217.27 157.245 217.562 157.023 217.934C156.809 218.298 156.652 218.705 156.555 219.154C156.464 219.597 156.418 220.049 156.418 220.512V220.922C156.418 221.384 156.464 221.84 156.555 222.289C156.646 222.738 156.799 223.145 157.014 223.51C157.235 223.874 157.531 224.167 157.902 224.389C158.28 224.604 158.749 224.711 159.309 224.711ZM167.512 215.434V226H165.705V215.434H167.512ZM174.445 215.434L169.436 221.488H166.906L166.633 219.906H168.703L172.248 215.434H174.445ZM172.502 226L168.615 221.215L169.777 219.906L174.797 226H172.502ZM175.676 220.834V220.609C175.676 219.848 175.786 219.141 176.008 218.49C176.229 217.833 176.548 217.263 176.965 216.781C177.382 216.293 177.886 215.915 178.479 215.648C179.071 215.375 179.735 215.238 180.471 215.238C181.213 215.238 181.88 215.375 182.473 215.648C183.072 215.915 183.579 216.293 183.996 216.781C184.419 217.263 184.742 217.833 184.963 218.49C185.184 219.141 185.295 219.848 185.295 220.609V220.834C185.295 221.596 185.184 222.302 184.963 222.953C184.742 223.604 184.419 224.174 183.996 224.662C183.579 225.144 183.075 225.521 182.482 225.795C181.896 226.062 181.232 226.195 180.49 226.195C179.748 226.195 179.081 226.062 178.488 225.795C177.896 225.521 177.388 225.144 176.965 224.662C176.548 224.174 176.229 223.604 176.008 222.953C175.786 222.302 175.676 221.596 175.676 220.834ZM177.482 220.609V220.834C177.482 221.361 177.544 221.859 177.668 222.328C177.792 222.79 177.977 223.201 178.225 223.559C178.479 223.917 178.794 224.2 179.172 224.408C179.549 224.61 179.989 224.711 180.49 224.711C180.985 224.711 181.418 224.61 181.789 224.408C182.167 224.2 182.479 223.917 182.727 223.559C182.974 223.201 183.16 222.79 183.283 222.328C183.413 221.859 183.479 221.361 183.479 220.834V220.609C183.479 220.089 183.413 219.597 183.283 219.135C183.16 218.666 182.971 218.253 182.717 217.895C182.469 217.53 182.157 217.243 181.779 217.035C181.408 216.827 180.972 216.723 180.471 216.723C179.976 216.723 179.54 216.827 179.162 217.035C178.791 217.243 178.479 217.53 178.225 217.895C177.977 218.253 177.792 218.666 177.668 219.135C177.544 219.597 177.482 220.089 177.482 220.609ZM194.387 215.434V216.928H189.504V226H187.697V215.434H194.387ZM195.285 220.834V220.609C195.285 219.848 195.396 219.141 195.617 218.49C195.839 217.833 196.158 217.263 196.574 216.781C196.991 216.293 197.495 215.915 198.088 215.648C198.68 215.375 199.344 215.238 200.08 215.238C200.822 215.238 201.49 215.375 202.082 215.648C202.681 215.915 203.189 216.293 203.605 216.781C204.029 217.263 204.351 217.833 204.572 218.49C204.794 219.141 204.904 219.848 204.904 220.609V220.834C204.904 221.596 204.794 222.302 204.572 222.953C204.351 223.604 204.029 224.174 203.605 224.662C203.189 225.144 202.684 225.521 202.092 225.795C201.506 226.062 200.842 226.195 200.1 226.195C199.357 226.195 198.69 226.062 198.098 225.795C197.505 225.521 196.997 225.144 196.574 224.662C196.158 224.174 195.839 223.604 195.617 222.953C195.396 222.302 195.285 221.596 195.285 220.834ZM197.092 220.609V220.834C197.092 221.361 197.154 221.859 197.277 222.328C197.401 222.79 197.587 223.201 197.834 223.559C198.088 223.917 198.404 224.2 198.781 224.408C199.159 224.61 199.598 224.711 200.1 224.711C200.594 224.711 201.027 224.61 201.398 224.408C201.776 224.2 202.089 223.917 202.336 223.559C202.583 223.201 202.769 222.79 202.893 222.328C203.023 221.859 203.088 221.361 203.088 220.834V220.609C203.088 220.089 203.023 219.597 202.893 219.135C202.769 218.666 202.58 218.253 202.326 217.895C202.079 217.53 201.766 217.243 201.389 217.035C201.018 216.827 200.581 216.723 200.08 216.723C199.585 216.723 199.149 216.827 198.771 217.035C198.4 217.243 198.088 217.53 197.834 217.895C197.587 218.253 197.401 218.666 197.277 219.135C197.154 219.597 197.092 220.089 197.092 220.609ZM34.5039 243.834V243.609C34.5039 242.848 34.6146 242.141 34.8359 241.49C35.0573 240.833 35.3763 240.263 35.793 239.781C36.2096 239.293 36.7142 238.915 37.3066 238.648C37.8991 238.375 38.5632 238.238 39.2988 238.238C40.041 238.238 40.7083 238.375 41.3008 238.648C41.8997 238.915 42.4076 239.293 42.8242 239.781C43.2474 240.263 43.5697 240.833 43.791 241.49C44.0124 242.141 44.123 242.848 44.123 243.609V243.834C44.123 244.596 44.0124 245.302 43.791 245.953C43.5697 246.604 43.2474 247.174 42.8242 247.662C42.4076 248.144 41.903 248.521 41.3105 248.795C40.7246 249.062 40.0605 249.195 39.3184 249.195C38.5762 249.195 37.9089 249.062 37.3164 248.795C36.724 248.521 36.2161 248.144 35.793 247.662C35.3763 247.174 35.0573 246.604 34.8359 245.953C34.6146 245.302 34.5039 244.596 34.5039 243.834ZM36.3105 243.609V243.834C36.3105 244.361 36.3724 244.859 36.4961 245.328C36.6198 245.79 36.8053 246.201 37.0527 246.559C37.3066 246.917 37.6224 247.2 38 247.408C38.3776 247.61 38.8171 247.711 39.3184 247.711C39.8132 247.711 40.2461 247.61 40.6172 247.408C40.9948 247.2 41.3073 246.917 41.5547 246.559C41.8021 246.201 41.9876 245.79 42.1113 245.328C42.2415 244.859 42.3066 244.361 42.3066 243.834V243.609C42.3066 243.089 42.2415 242.597 42.1113 242.135C41.9876 241.666 41.7988 241.253 41.5449 240.895C41.2975 240.53 40.985 240.243 40.6074 240.035C40.2363 239.827 39.8001 239.723 39.2988 239.723C38.804 239.723 38.3678 239.827 37.9902 240.035C37.6191 240.243 37.3066 240.53 37.0527 240.895C36.8053 241.253 36.6198 241.666 36.4961 242.135C36.3724 242.597 36.3105 243.089 36.3105 243.609ZM53.166 233.834H54.6504C54.6504 234.472 54.5527 234.98 54.3574 235.357C54.1621 235.729 53.8952 236.015 53.5566 236.217C53.2246 236.419 52.847 236.572 52.4238 236.676C52.0072 236.78 51.5742 236.881 51.125 236.979C50.5651 237.096 50.0443 237.281 49.5625 237.535C49.0872 237.783 48.6771 238.134 48.332 238.59C47.9935 239.046 47.7428 239.638 47.5801 240.367C47.4238 241.096 47.3815 241.998 47.4531 243.072V243.971H45.9688V243.072C45.9688 241.868 46.0827 240.816 46.3105 239.918C46.5449 239.02 46.8737 238.261 47.2969 237.643C47.7201 237.024 48.2214 236.533 48.8008 236.168C49.3867 235.803 50.0312 235.553 50.7344 235.416C51.2422 235.318 51.6784 235.214 52.043 235.104C52.4076 234.986 52.6842 234.83 52.873 234.635C53.0684 234.439 53.166 234.173 53.166 233.834ZM51.0273 239.039C51.7174 239.039 52.3327 239.16 52.873 239.4C53.4134 239.641 53.8724 239.977 54.25 240.406C54.6276 240.836 54.9141 241.344 55.1094 241.93C55.3112 242.509 55.4121 243.141 55.4121 243.824V244.039C55.4121 244.775 55.3047 245.458 55.0898 246.09C54.8815 246.715 54.5723 247.262 54.1621 247.73C53.7585 248.193 53.2637 248.554 52.6777 248.814C52.0983 249.075 51.4375 249.205 50.6953 249.205C49.9531 249.205 49.2891 249.075 48.7031 248.814C48.1237 248.554 47.6289 248.193 47.2188 247.73C46.8086 247.262 46.4961 246.715 46.2812 246.09C46.0729 245.458 45.9688 244.775 45.9688 244.039V243.824C45.9688 243.661 45.998 243.502 46.0566 243.346C46.1152 243.189 46.1868 243.03 46.2715 242.867C46.3626 242.704 46.444 242.532 46.5156 242.35C46.7565 241.764 47.0853 241.22 47.502 240.719C47.9251 240.217 48.4297 239.814 49.0156 239.508C49.6081 239.195 50.2786 239.039 51.0273 239.039ZM50.6758 240.514C50.0117 240.514 49.4648 240.667 49.0352 240.973C48.612 241.279 48.2962 241.686 48.0879 242.193C47.8796 242.695 47.7754 243.238 47.7754 243.824V244.039C47.7754 244.534 47.834 245.003 47.9512 245.445C48.0684 245.888 48.2441 246.282 48.4785 246.627C48.7194 246.965 49.0221 247.232 49.3867 247.428C49.7578 247.623 50.194 247.721 50.6953 247.721C51.1966 247.721 51.6296 247.623 51.9941 247.428C52.3587 247.232 52.6582 246.965 52.8926 246.627C53.127 246.282 53.3027 245.888 53.4199 245.445C53.5371 245.003 53.5957 244.534 53.5957 244.039V243.824C53.5957 243.382 53.5371 242.962 53.4199 242.564C53.3027 242.167 53.1237 241.816 52.8828 241.51C52.6484 241.204 52.3457 240.963 51.9746 240.787C51.61 240.605 51.1771 240.514 50.6758 240.514ZM56.9844 243.834V243.609C56.9844 242.848 57.0951 242.141 57.3164 241.49C57.5378 240.833 57.8568 240.263 58.2734 239.781C58.6901 239.293 59.1947 238.915 59.7871 238.648C60.3796 238.375 61.0436 238.238 61.7793 238.238C62.5215 238.238 63.1888 238.375 63.7812 238.648C64.3802 238.915 64.888 239.293 65.3047 239.781C65.7279 240.263 66.0501 240.833 66.2715 241.49C66.4928 242.141 66.6035 242.848 66.6035 243.609V243.834C66.6035 244.596 66.4928 245.302 66.2715 245.953C66.0501 246.604 65.7279 247.174 65.3047 247.662C64.888 248.144 64.3835 248.521 63.791 248.795C63.2051 249.062 62.541 249.195 61.7988 249.195C61.0566 249.195 60.3893 249.062 59.7969 248.795C59.2044 248.521 58.6966 248.144 58.2734 247.662C57.8568 247.174 57.5378 246.604 57.3164 245.953C57.0951 245.302 56.9844 244.596 56.9844 243.834ZM58.791 243.609V243.834C58.791 244.361 58.8529 244.859 58.9766 245.328C59.1003 245.79 59.2858 246.201 59.5332 246.559C59.7871 246.917 60.1029 247.2 60.4805 247.408C60.8581 247.61 61.2975 247.711 61.7988 247.711C62.2936 247.711 62.7266 247.61 63.0977 247.408C63.4753 247.2 63.7878 246.917 64.0352 246.559C64.2826 246.201 64.4681 245.79 64.5918 245.328C64.722 244.859 64.7871 244.361 64.7871 243.834V243.609C64.7871 243.089 64.722 242.597 64.5918 242.135C64.4681 241.666 64.2793 241.253 64.0254 240.895C63.778 240.53 63.4655 240.243 63.0879 240.035C62.7168 239.827 62.2806 239.723 61.7793 239.723C61.2845 239.723 60.8483 239.827 60.4707 240.035C60.0996 240.243 59.7871 240.53 59.5332 240.895C59.2858 241.253 59.1003 241.666 58.9766 242.135C58.8529 242.597 58.791 243.089 58.791 243.609ZM70.6758 240.465V253.062H68.8594V238.434H70.5195L70.6758 240.465ZM77.7949 243.629V243.834C77.7949 244.602 77.7038 245.315 77.5215 245.973C77.3392 246.624 77.0723 247.19 76.7207 247.672C76.3757 248.154 75.9492 248.528 75.4414 248.795C74.9336 249.062 74.3509 249.195 73.6934 249.195C73.0228 249.195 72.4303 249.085 71.916 248.863C71.4017 248.642 70.9655 248.32 70.6074 247.896C70.2493 247.473 69.9629 246.965 69.748 246.373C69.5397 245.781 69.3965 245.113 69.3184 244.371V243.277C69.3965 242.496 69.543 241.796 69.7578 241.178C69.9727 240.559 70.2559 240.032 70.6074 239.596C70.9655 239.153 71.3984 238.818 71.9062 238.59C72.4141 238.355 73 238.238 73.6641 238.238C74.3281 238.238 74.9173 238.368 75.4316 238.629C75.946 238.883 76.3789 239.247 76.7305 239.723C77.082 240.198 77.3457 240.768 77.5215 241.432C77.7038 242.089 77.7949 242.822 77.7949 243.629ZM75.9785 243.834V243.629C75.9785 243.102 75.9232 242.607 75.8125 242.145C75.7018 241.676 75.5293 241.266 75.2949 240.914C75.0671 240.556 74.7741 240.276 74.416 240.074C74.0579 239.866 73.6315 239.762 73.1367 239.762C72.681 239.762 72.2839 239.84 71.9453 239.996C71.6133 240.152 71.3301 240.364 71.0957 240.631C70.8613 240.891 70.6693 241.191 70.5195 241.529C70.3763 241.861 70.2689 242.206 70.1973 242.564V245.094C70.3275 245.549 70.5098 245.979 70.7441 246.383C70.9785 246.78 71.291 247.102 71.6816 247.35C72.0723 247.59 72.5638 247.711 73.1562 247.711C73.6445 247.711 74.0645 247.61 74.416 247.408C74.7741 247.2 75.0671 246.917 75.2949 246.559C75.5293 246.201 75.7018 245.79 75.8125 245.328C75.9232 244.859 75.9785 244.361 75.9785 243.834ZM82.9512 247.906L85.8906 238.434H87.8242L83.5859 250.631C83.4883 250.891 83.3581 251.171 83.1953 251.471C83.0391 251.777 82.8372 252.066 82.5898 252.34C82.3424 252.613 82.043 252.835 81.6914 253.004C81.3464 253.18 80.9329 253.268 80.4512 253.268C80.3079 253.268 80.1257 253.248 79.9043 253.209C79.6829 253.17 79.5267 253.137 79.4355 253.111L79.4258 251.646C79.4779 251.653 79.5592 251.66 79.6699 251.666C79.7871 251.679 79.8685 251.686 79.9141 251.686C80.3242 251.686 80.6725 251.63 80.959 251.52C81.2454 251.415 81.4863 251.236 81.6816 250.982C81.8835 250.735 82.056 250.393 82.1992 249.957L82.9512 247.906ZM80.793 238.434L83.5371 246.637L84.0059 248.541L82.707 249.205L78.8203 238.434H80.793ZM90.8125 238.434H92.6191L92.4629 242.389C92.4238 243.391 92.3099 244.257 92.1211 244.986C91.9323 245.715 91.6914 246.337 91.3984 246.852C91.1055 247.359 90.7767 247.786 90.4121 248.131C90.054 248.476 89.6829 248.766 89.2988 249H88.4004L88.4492 247.525L88.8203 247.516C89.0352 247.262 89.2435 247.001 89.4453 246.734C89.6471 246.461 89.8327 246.139 90.002 245.768C90.1712 245.39 90.3112 244.931 90.4219 244.391C90.5391 243.844 90.6139 243.176 90.6465 242.389L90.8125 238.434ZM91.2617 238.434H97.6191V249H95.8125V240.104H91.2617V238.434ZM87.9902 247.516H98.9766V252.115H97.1699V249H89.7969V252.115H87.9805L87.9902 247.516ZM100.5 243.834V243.609C100.5 242.848 100.611 242.141 100.832 241.49C101.053 240.833 101.372 240.263 101.789 239.781C102.206 239.293 102.71 238.915 103.303 238.648C103.895 238.375 104.559 238.238 105.295 238.238C106.037 238.238 106.704 238.375 107.297 238.648C107.896 238.915 108.404 239.293 108.82 239.781C109.243 240.263 109.566 240.833 109.787 241.49C110.008 242.141 110.119 242.848 110.119 243.609V243.834C110.119 244.596 110.008 245.302 109.787 245.953C109.566 246.604 109.243 247.174 108.82 247.662C108.404 248.144 107.899 248.521 107.307 248.795C106.721 249.062 106.057 249.195 105.314 249.195C104.572 249.195 103.905 249.062 103.312 248.795C102.72 248.521 102.212 248.144 101.789 247.662C101.372 247.174 101.053 246.604 100.832 245.953C100.611 245.302 100.5 244.596 100.5 243.834ZM102.307 243.609V243.834C102.307 244.361 102.368 244.859 102.492 245.328C102.616 245.79 102.801 246.201 103.049 246.559C103.303 246.917 103.618 247.2 103.996 247.408C104.374 247.61 104.813 247.711 105.314 247.711C105.809 247.711 106.242 247.61 106.613 247.408C106.991 247.2 107.303 246.917 107.551 246.559C107.798 246.201 107.984 245.79 108.107 245.328C108.238 244.859 108.303 244.361 108.303 243.834V243.609C108.303 243.089 108.238 242.597 108.107 242.135C107.984 241.666 107.795 241.253 107.541 240.895C107.294 240.53 106.981 240.243 106.604 240.035C106.232 239.827 105.796 239.723 105.295 239.723C104.8 239.723 104.364 239.827 103.986 240.035C103.615 240.243 103.303 240.53 103.049 240.895C102.801 241.253 102.616 241.666 102.492 242.135C102.368 242.597 102.307 243.089 102.307 243.609ZM117.346 244.352H113.879L113.859 242.906H116.691C117.251 242.906 117.717 242.851 118.088 242.74C118.465 242.63 118.749 242.464 118.938 242.242C119.126 242.021 119.221 241.747 119.221 241.422C119.221 241.168 119.165 240.947 119.055 240.758C118.951 240.562 118.791 240.403 118.576 240.279C118.361 240.149 118.094 240.055 117.775 239.996C117.463 239.931 117.095 239.898 116.672 239.898H114.357V249H112.551V238.434H116.672C117.342 238.434 117.945 238.492 118.479 238.609C119.019 238.727 119.478 238.906 119.855 239.146C120.24 239.381 120.533 239.68 120.734 240.045C120.936 240.41 121.037 240.839 121.037 241.334C121.037 241.653 120.972 241.956 120.842 242.242C120.712 242.529 120.52 242.783 120.266 243.004C120.012 243.225 119.699 243.408 119.328 243.551C118.957 243.688 118.531 243.775 118.049 243.814L117.346 244.352ZM117.346 249H113.225L114.123 247.535H117.346C117.847 247.535 118.264 247.473 118.596 247.35C118.928 247.219 119.175 247.037 119.338 246.803C119.507 246.562 119.592 246.275 119.592 245.943C119.592 245.611 119.507 245.328 119.338 245.094C119.175 244.853 118.928 244.671 118.596 244.547C118.264 244.417 117.847 244.352 117.346 244.352H114.602L114.621 242.906H118.049L118.703 243.453C119.283 243.499 119.774 243.642 120.178 243.883C120.581 244.124 120.887 244.43 121.096 244.801C121.304 245.165 121.408 245.562 121.408 245.992C121.408 246.487 121.314 246.923 121.125 247.301C120.943 247.678 120.676 247.994 120.324 248.248C119.973 248.495 119.546 248.684 119.045 248.814C118.544 248.938 117.977 249 117.346 249ZM130.061 247.193V241.754C130.061 241.337 129.976 240.976 129.807 240.67C129.644 240.357 129.396 240.117 129.064 239.947C128.732 239.778 128.322 239.693 127.834 239.693C127.378 239.693 126.978 239.771 126.633 239.928C126.294 240.084 126.027 240.289 125.832 240.543C125.643 240.797 125.549 241.07 125.549 241.363H123.742C123.742 240.986 123.84 240.611 124.035 240.24C124.23 239.869 124.51 239.534 124.875 239.234C125.246 238.928 125.689 238.688 126.203 238.512C126.724 238.329 127.303 238.238 127.941 238.238C128.71 238.238 129.387 238.368 129.973 238.629C130.565 238.889 131.027 239.283 131.359 239.811C131.698 240.331 131.867 240.986 131.867 241.773V246.695C131.867 247.047 131.896 247.421 131.955 247.818C132.02 248.215 132.115 248.557 132.238 248.844V249H130.354C130.262 248.792 130.191 248.515 130.139 248.17C130.087 247.818 130.061 247.493 130.061 247.193ZM130.373 242.594L130.393 243.863H128.566C128.052 243.863 127.593 243.906 127.189 243.99C126.786 244.068 126.447 244.189 126.174 244.352C125.9 244.514 125.692 244.719 125.549 244.967C125.406 245.208 125.334 245.491 125.334 245.816C125.334 246.148 125.409 246.451 125.559 246.725C125.708 246.998 125.933 247.216 126.232 247.379C126.538 247.535 126.913 247.613 127.355 247.613C127.909 247.613 128.397 247.496 128.82 247.262C129.243 247.027 129.579 246.741 129.826 246.402C130.08 246.064 130.217 245.735 130.236 245.416L131.008 246.285C130.962 246.559 130.839 246.861 130.637 247.193C130.435 247.525 130.165 247.844 129.826 248.15C129.494 248.45 129.097 248.701 128.635 248.902C128.179 249.098 127.665 249.195 127.092 249.195C126.376 249.195 125.747 249.055 125.207 248.775C124.673 248.495 124.257 248.121 123.957 247.652C123.664 247.177 123.518 246.646 123.518 246.061C123.518 245.494 123.628 244.996 123.85 244.566C124.071 244.13 124.39 243.769 124.807 243.482C125.223 243.189 125.725 242.968 126.311 242.818C126.896 242.669 127.551 242.594 128.273 242.594H130.373ZM141.877 243.014V244.479H136.291V243.014H141.877ZM136.672 238.434V249H134.865V238.434H136.672ZM143.342 238.434V249H141.525V238.434H143.342ZM148.205 246.139L153.078 238.434H154.895V249H153.078V241.295L148.205 249H146.408V238.434H148.205V246.139ZM159.934 243.961H161.887L158.83 249H156.877L159.934 243.961ZM161.447 238.434H165.861V249H164.055V239.898H161.447C160.933 239.898 160.513 239.986 160.188 240.162C159.862 240.331 159.624 240.553 159.475 240.826C159.325 241.1 159.25 241.383 159.25 241.676C159.25 241.962 159.318 242.239 159.455 242.506C159.592 242.766 159.807 242.981 160.1 243.15C160.393 243.32 160.77 243.404 161.232 243.404H164.543V244.889H161.232C160.627 244.889 160.09 244.807 159.621 244.645C159.152 244.482 158.755 244.257 158.43 243.971C158.104 243.678 157.857 243.336 157.688 242.945C157.518 242.548 157.434 242.118 157.434 241.656C157.434 241.194 157.521 240.768 157.697 240.377C157.88 239.986 158.14 239.645 158.479 239.352C158.824 239.059 159.243 238.834 159.738 238.678C160.24 238.515 160.809 238.434 161.447 238.434Z" fill="#5A5A5A"/>
</g>
</g>
</g>
</g>
<defs>
<filter id="filter0_d_0_1" x="-120" y="-32" width="439" height="340" filterUnits="userSpaceOnUse" color-interpolation-filters="sRGB">
<feFlood flood-opacity="0" result="BackgroundImageFix"/>
<feColorMatrix in="SourceAlpha" type="matrix" values="0 0 0 0 0 0 0 0 0 0 0 0 0 0 0 0 0 0 127 0" result="hardAlpha"/>
<feOffset dy="1"/>
<feGaussianBlur stdDeviation="2"/>
<feComposite in2="hardAlpha" operator="out"/>
<feColorMatrix type="matrix" values="0 0 0 0 0 0 0 0 0 0 0 0 0 0 0 0 0 0 0.1 0"/>
<feBlend mode="normal" in2="BackgroundImageFix" result="effect1_dropShadow_0_1"/>
<feBlend mode="normal" in="SourceGraphic" in2="effect1_dropShadow_0_1" result="shape"/>
</filter>
<linearGradient id="paint0_linear_0_1" x1="99.5" y1="-29" x2="99.5" y2="303" gradientUnits="userSpaceOnUse">
<stop stop-color="#F8F8F8"/>
<stop offset="1" stop-color="#F8F8F8" stop-opacity="0"/>
</linearGradient>
<clipPath id="clip0_0_1">
<rect width="1920" height="3285" fill="white" transform="translate(-396 -891)"/>
</clipPath>
</defs>
</svg>
