<svg width="76" height="76" viewBox="0 0 76 76" fill="none" xmlns="http://www.w3.org/2000/svg">
<g id="tg">
<g id="Rectangle 844" filter="url(#filter0_d_1625_119751)">
<rect x="20" y="15" width="36" height="36" rx="5" fill="white"/>
</g>
<g id="path13">
<path d="M28.302 32.4425C30.348 31.3538 32.632 30.4452 34.766 29.532C38.4374 28.0361 42.1233 26.5662 45.8464 25.1978C46.5708 24.9646 47.8724 24.7366 48 25.7735C47.9301 27.2413 47.6426 28.7005 47.4454 30.1597C46.945 33.3686 46.3665 36.5665 45.8024 39.7649C45.608 40.8302 44.2264 41.3817 43.3424 40.6999C41.2178 39.3138 39.0769 37.941 36.9795 36.5227C36.2925 35.8483 36.9296 34.8799 37.5432 34.3984C39.293 32.7326 41.1488 31.3174 42.8071 29.5656C43.2545 28.5221 41.9327 29.4015 41.4967 29.671C39.1012 31.2656 36.7643 32.9575 34.2386 34.3589C32.9485 35.0449 31.4449 34.4587 30.1554 34.0759C28.9992 33.6135 27.305 33.1475 28.302 32.4425Z" fill="#0867D6"/>
<path d="M28.302 32.4425C30.348 31.3538 32.632 30.4452 34.766 29.532C38.4374 28.0361 42.1233 26.5662 45.8464 25.1978C46.5708 24.9646 47.8724 24.7366 48 25.7735C47.9301 27.2413 47.6426 28.7005 47.4454 30.1597C46.945 33.3686 46.3665 36.5665 45.8024 39.7649C45.608 40.8302 44.2264 41.3817 43.3424 40.6999C41.2178 39.3138 39.0769 37.941 36.9795 36.5227C36.2925 35.8483 36.9296 34.8799 37.5432 34.3984C39.293 32.7326 41.1488 31.3174 42.8071 29.5656C43.2545 28.5221 41.9327 29.4015 41.4967 29.671C39.1012 31.2656 36.7643 32.9575 34.2386 34.3589C32.9485 35.0449 31.4449 34.4587 30.1554 34.0759C28.9992 33.6135 27.305 33.1475 28.302 32.4425Z" fill="#0696E7"/>
<path d="M28.302 32.4425C30.348 31.3538 32.632 30.4452 34.766 29.532C38.4374 28.0361 42.1233 26.5662 45.8464 25.1978C46.5708 24.9646 47.8724 24.7366 48 25.7735C47.9301 27.2413 47.6426 28.7005 47.4454 30.1597C46.945 33.3686 46.3665 36.5665 45.8024 39.7649C45.608 40.8302 44.2264 41.3817 43.3424 40.6999C41.2178 39.3138 39.0769 37.941 36.9795 36.5227C36.2925 35.8483 36.9296 34.8799 37.5432 34.3984C39.293 32.7326 41.1488 31.3174 42.8071 29.5656C43.2545 28.5221 41.9327 29.4015 41.4967 29.671C39.1012 31.2656 36.7643 32.9575 34.2386 34.3589C32.9485 35.0449 31.4449 34.4587 30.1554 34.0759C28.9992 33.6135 27.305 33.1475 28.302 32.4425Z" fill="#419FD9"/>
</g>
</g>
<defs>
<filter id="filter0_d_1625_119751" x="0" y="0" width="76" height="76" filterUnits="userSpaceOnUse" color-interpolation-filters="sRGB">
<feFlood flood-opacity="0" result="BackgroundImageFix"/>
<feColorMatrix in="SourceAlpha" type="matrix" values="0 0 0 0 0 0 0 0 0 0 0 0 0 0 0 0 0 0 127 0" result="hardAlpha"/>
<feOffset dy="5"/>
<feGaussianBlur stdDeviation="10"/>
<feComposite in2="hardAlpha" operator="out"/>
<feColorMatrix type="matrix" values="0 0 0 0 0.247135 0 0 0 0 0.259458 0 0 0 0 0.270833 0 0 0 0.05 0"/>
<feBlend mode="normal" in2="BackgroundImageFix" result="effect1_dropShadow_1625_119751"/>
<feBlend mode="normal" in="SourceGraphic" in2="effect1_dropShadow_1625_119751" result="shape"/>
</filter>
</defs>
</svg>
