<svg width="76" height="76" viewBox="0 0 76 76" fill="none" xmlns="http://www.w3.org/2000/svg">
<g id="Viber">
<g id="Rectangle 845" filter="url(#filter0_d_1625_119754)">
<rect x="20" y="15" width="36" height="36" rx="5" fill="white"/>
</g>
<g id="Group 663">
<g id="Path">
<path d="M42.2221 30.9891C42.1508 30.4106 41.973 29.9563 41.6572 29.5539C41.2472 29.0358 40.7232 28.7256 39.9474 28.5415C39.4418 28.4188 39.2375 28.4329 39.0546 28.6C38.8843 28.7564 38.8511 29.0702 38.9812 29.2733C39.0728 29.4208 39.1784 29.4736 39.4721 29.5313C39.8632 29.6032 40.1335 29.6966 40.3794 29.8372C40.9012 30.1385 41.1443 30.6101 41.1703 31.3735C41.1824 31.7319 41.2134 31.8421 41.3386 31.9692C41.5706 32.2016 41.9836 32.1564 42.1588 31.8783C42.2231 31.7735 42.2329 31.7279 42.2396 31.4845C42.2441 31.3338 42.2376 31.1095 42.2221 30.9891Z" fill="#0867D6"/>
<path d="M42.2221 30.9891C42.1508 30.4106 41.973 29.9563 41.6572 29.5539C41.2472 29.0358 40.7232 28.7256 39.9474 28.5415C39.4418 28.4188 39.2375 28.4329 39.0546 28.6C38.8843 28.7564 38.8511 29.0702 38.9812 29.2733C39.0728 29.4208 39.1784 29.4736 39.4721 29.5313C39.8632 29.6032 40.1335 29.6966 40.3794 29.8372C40.9012 30.1385 41.1443 30.6101 41.1703 31.3735C41.1824 31.7319 41.2134 31.8421 41.3386 31.9692C41.5706 32.2016 41.9836 32.1564 42.1588 31.8783C42.2231 31.7735 42.2329 31.7279 42.2396 31.4845C42.2441 31.3338 42.2376 31.1095 42.2221 30.9891Z" fill="#EEEE36"/>
<path d="M42.2221 30.9891C42.1508 30.4106 41.973 29.9563 41.6572 29.5539C41.2472 29.0358 40.7232 28.7256 39.9474 28.5415C39.4418 28.4188 39.2375 28.4329 39.0546 28.6C38.8843 28.7564 38.8511 29.0702 38.9812 29.2733C39.0728 29.4208 39.1784 29.4736 39.4721 29.5313C39.8632 29.6032 40.1335 29.6966 40.3794 29.8372C40.9012 30.1385 41.1443 30.6101 41.1703 31.3735C41.1824 31.7319 41.2134 31.8421 41.3386 31.9692C41.5706 32.2016 41.9836 32.1564 42.1588 31.8783C42.2231 31.7735 42.2329 31.7279 42.2396 31.4845C42.2441 31.3338 42.2376 31.1095 42.2221 30.9891Z" fill="#7F4DA0"/>
</g>
<g id="Path_2">
<path d="M44.2668 31.6409C44.1637 29.8684 43.4705 28.4424 42.2297 27.439C41.5307 26.8753 40.6857 26.4876 39.7594 26.2991C39.4201 26.2316 38.7954 26.177 38.6883 26.2082C38.5871 26.2372 38.4441 26.3467 38.3803 26.4457C38.3129 26.5531 38.2977 26.7929 38.3552 26.9315C38.4481 27.1634 38.6208 27.2453 39.1044 27.2876C39.8499 27.3528 40.6189 27.6148 41.2 28.0026C41.8633 28.4441 42.3906 29.048 42.7318 29.7576C43.0265 30.3674 43.2078 31.246 43.2027 32.0329C43.2011 32.3175 43.245 32.4782 43.3595 32.5957C43.5322 32.7764 43.784 32.8159 44.0063 32.6959C44.2526 32.5664 44.3102 32.339 44.2668 31.6409Z" fill="#0867D6"/>
<path d="M44.2668 31.6409C44.1637 29.8684 43.4705 28.4424 42.2297 27.439C41.5307 26.8753 40.6857 26.4876 39.7594 26.2991C39.4201 26.2316 38.7954 26.177 38.6883 26.2082C38.5871 26.2372 38.4441 26.3467 38.3803 26.4457C38.3129 26.5531 38.2977 26.7929 38.3552 26.9315C38.4481 27.1634 38.6208 27.2453 39.1044 27.2876C39.8499 27.3528 40.6189 27.6148 41.2 28.0026C41.8633 28.4441 42.3906 29.048 42.7318 29.7576C43.0265 30.3674 43.2078 31.246 43.2027 32.0329C43.2011 32.3175 43.245 32.4782 43.3595 32.5957C43.5322 32.7764 43.784 32.8159 44.0063 32.6959C44.2526 32.5664 44.3102 32.339 44.2668 31.6409Z" fill="#EEEE36"/>
<path d="M44.2668 31.6409C44.1637 29.8684 43.4705 28.4424 42.2297 27.439C41.5307 26.8753 40.6857 26.4876 39.7594 26.2991C39.4201 26.2316 38.7954 26.177 38.6883 26.2082C38.5871 26.2372 38.4441 26.3467 38.3803 26.4457C38.3129 26.5531 38.2977 26.7929 38.3552 26.9315C38.4481 27.1634 38.6208 27.2453 39.1044 27.2876C39.8499 27.3528 40.6189 27.6148 41.2 28.0026C41.8633 28.4441 42.3906 29.048 42.7318 29.7576C43.0265 30.3674 43.2078 31.246 43.2027 32.0329C43.2011 32.3175 43.245 32.4782 43.3595 32.5957C43.5322 32.7764 43.784 32.8159 44.0063 32.6959C44.2526 32.5664 44.3102 32.339 44.2668 31.6409Z" fill="#7F4DA0"/>
</g>
<g id="Path_3">
<path d="M46.5281 38.4665C46.4934 38.3652 46.4125 38.2089 46.3547 38.1192C45.9906 37.5694 44.0343 36.0384 43.0576 35.5377C42.4999 35.2512 42.0867 35.1557 41.7803 35.2454C41.4509 35.3381 41.2775 35.4914 40.7256 36.1773C40.5031 36.4523 40.2748 36.7098 40.2141 36.7503C40.0638 36.8545 39.7691 36.9385 39.5611 36.9385C39.0785 36.9355 38.2029 36.623 37.5296 36.212C37.0066 35.8937 36.3362 35.3236 35.8218 34.7592C35.2149 34.0965 34.8017 33.5119 34.4752 32.852C34.0533 32.0041 33.9464 31.486 34.1226 31.1069C34.166 31.0114 34.2238 30.9101 34.2498 30.8782C34.2758 30.8493 34.5474 30.6265 34.8479 30.3834C35.4375 29.9145 35.5328 29.8075 35.6426 29.4862C35.7813 29.0781 35.7438 28.6614 35.5299 28.2418C35.3652 27.9234 34.9346 27.2288 34.6226 26.7803C34.2093 26.1899 33.1806 24.9281 32.9754 24.7573C32.6055 24.4563 32.1317 24.4042 31.6086 24.6068C31.0567 24.821 30.0221 25.6545 29.58 26.2362C29.1812 26.7629 29.0281 27.1362 29.005 27.6282C28.9848 28.0334 29.0194 28.2012 29.2333 28.7193C30.9064 32.7826 33.4031 36.0268 36.8332 38.6026C38.6248 39.9483 40.4829 40.9728 42.4103 41.6732C43.5344 42.0812 44.0227 42.1015 44.5978 41.7658C44.8405 41.6211 45.4416 41.0046 45.7768 40.5561C46.3316 39.8094 46.5368 39.465 46.5946 39.1901C46.635 39.0019 46.6032 38.6749 46.5281 38.4665Z" fill="#0867D6"/>
<path d="M46.5281 38.4665C46.4934 38.3652 46.4125 38.2089 46.3547 38.1192C45.9906 37.5694 44.0343 36.0384 43.0576 35.5377C42.4999 35.2512 42.0867 35.1557 41.7803 35.2454C41.4509 35.3381 41.2775 35.4914 40.7256 36.1773C40.5031 36.4523 40.2748 36.7098 40.2141 36.7503C40.0638 36.8545 39.7691 36.9385 39.5611 36.9385C39.0785 36.9355 38.2029 36.623 37.5296 36.212C37.0066 35.8937 36.3362 35.3236 35.8218 34.7592C35.2149 34.0965 34.8017 33.5119 34.4752 32.852C34.0533 32.0041 33.9464 31.486 34.1226 31.1069C34.166 31.0114 34.2238 30.9101 34.2498 30.8782C34.2758 30.8493 34.5474 30.6265 34.8479 30.3834C35.4375 29.9145 35.5328 29.8075 35.6426 29.4862C35.7813 29.0781 35.7438 28.6614 35.5299 28.2418C35.3652 27.9234 34.9346 27.2288 34.6226 26.7803C34.2093 26.1899 33.1806 24.9281 32.9754 24.7573C32.6055 24.4563 32.1317 24.4042 31.6086 24.6068C31.0567 24.821 30.0221 25.6545 29.58 26.2362C29.1812 26.7629 29.0281 27.1362 29.005 27.6282C28.9848 28.0334 29.0194 28.2012 29.2333 28.7193C30.9064 32.7826 33.4031 36.0268 36.8332 38.6026C38.6248 39.9483 40.4829 40.9728 42.4103 41.6732C43.5344 42.0812 44.0227 42.1015 44.5978 41.7658C44.8405 41.6211 45.4416 41.0046 45.7768 40.5561C46.3316 39.8094 46.5368 39.465 46.5946 39.1901C46.635 39.0019 46.6032 38.6749 46.5281 38.4665Z" fill="#EEEE36"/>
<path d="M46.5281 38.4665C46.4934 38.3652 46.4125 38.2089 46.3547 38.1192C45.9906 37.5694 44.0343 36.0384 43.0576 35.5377C42.4999 35.2512 42.0867 35.1557 41.7803 35.2454C41.4509 35.3381 41.2775 35.4914 40.7256 36.1773C40.5031 36.4523 40.2748 36.7098 40.2141 36.7503C40.0638 36.8545 39.7691 36.9385 39.5611 36.9385C39.0785 36.9355 38.2029 36.623 37.5296 36.212C37.0066 35.8937 36.3362 35.3236 35.8218 34.7592C35.2149 34.0965 34.8017 33.5119 34.4752 32.852C34.0533 32.0041 33.9464 31.486 34.1226 31.1069C34.166 31.0114 34.2238 30.9101 34.2498 30.8782C34.2758 30.8493 34.5474 30.6265 34.8479 30.3834C35.4375 29.9145 35.5328 29.8075 35.6426 29.4862C35.7813 29.0781 35.7438 28.6614 35.5299 28.2418C35.3652 27.9234 34.9346 27.2288 34.6226 26.7803C34.2093 26.1899 33.1806 24.9281 32.9754 24.7573C32.6055 24.4563 32.1317 24.4042 31.6086 24.6068C31.0567 24.821 30.0221 25.6545 29.58 26.2362C29.1812 26.7629 29.0281 27.1362 29.005 27.6282C28.9848 28.0334 29.0194 28.2012 29.2333 28.7193C30.9064 32.7826 33.4031 36.0268 36.8332 38.6026C38.6248 39.9483 40.4829 40.9728 42.4103 41.6732C43.5344 42.0812 44.0227 42.1015 44.5978 41.7658C44.8405 41.6211 45.4416 41.0046 45.7768 40.5561C46.3316 39.8094 46.5368 39.465 46.5946 39.1901C46.635 39.0019 46.6032 38.6749 46.5281 38.4665Z" fill="#7F4DA0"/>
</g>
<g id="Path_4">
<path d="M46.3461 32.0475C46.3091 31.0448 46.1403 30.2225 45.7883 29.3056C45.4408 28.4037 45.0891 27.8151 44.4249 27.0191C43.7969 26.2727 43.3091 25.8466 42.5356 25.3722C41.4563 24.7112 40.1428 24.2738 38.6708 24.0899C38.1688 24.0256 38.0553 24.0302 37.9013 24.133C37.6028 24.3276 37.6068 24.8132 37.9062 25.0049C38.0053 25.0659 38.0932 25.0881 38.4948 25.1407C39.1112 25.2237 39.5075 25.3019 39.9778 25.4302C41.8221 25.9343 43.2403 26.9648 44.1885 28.4946C44.9819 29.7696 45.3113 31.0447 45.2645 32.6733C45.2483 33.2238 45.2601 33.3207 45.3442 33.453C45.5054 33.6996 45.9305 33.7483 46.1485 33.5437C46.2842 33.4191 46.3098 33.3254 46.3365 32.8542C46.3493 32.6084 46.352 32.2455 46.3461 32.0475Z" fill="#0867D6"/>
<path d="M46.3461 32.0475C46.3091 31.0448 46.1403 30.2225 45.7883 29.3056C45.4408 28.4037 45.0891 27.8151 44.4249 27.0191C43.7969 26.2727 43.3091 25.8466 42.5356 25.3722C41.4563 24.7112 40.1428 24.2738 38.6708 24.0899C38.1688 24.0256 38.0553 24.0302 37.9013 24.133C37.6028 24.3276 37.6068 24.8132 37.9062 25.0049C38.0053 25.0659 38.0932 25.0881 38.4948 25.1407C39.1112 25.2237 39.5075 25.3019 39.9778 25.4302C41.8221 25.9343 43.2403 26.9648 44.1885 28.4946C44.9819 29.7696 45.3113 31.0447 45.2645 32.6733C45.2483 33.2238 45.2601 33.3207 45.3442 33.453C45.5054 33.6996 45.9305 33.7483 46.1485 33.5437C46.2842 33.4191 46.3098 33.3254 46.3365 32.8542C46.3493 32.6084 46.352 32.2455 46.3461 32.0475Z" fill="#EEEE36"/>
<path d="M46.3461 32.0475C46.3091 31.0448 46.1403 30.2225 45.7883 29.3056C45.4408 28.4037 45.0891 27.8151 44.4249 27.0191C43.7969 26.2727 43.3091 25.8466 42.5356 25.3722C41.4563 24.7112 40.1428 24.2738 38.6708 24.0899C38.1688 24.0256 38.0553 24.0302 37.9013 24.133C37.6028 24.3276 37.6068 24.8132 37.9062 25.0049C38.0053 25.0659 38.0932 25.0881 38.4948 25.1407C39.1112 25.2237 39.5075 25.3019 39.9778 25.4302C41.8221 25.9343 43.2403 26.9648 44.1885 28.4946C44.9819 29.7696 45.3113 31.0447 45.2645 32.6733C45.2483 33.2238 45.2601 33.3207 45.3442 33.453C45.5054 33.6996 45.9305 33.7483 46.1485 33.5437C46.2842 33.4191 46.3098 33.3254 46.3365 32.8542C46.3493 32.6084 46.352 32.2455 46.3461 32.0475Z" fill="#7F4DA0"/>
</g>
</g>
</g>
<defs>
<filter id="filter0_d_1625_119754" x="0" y="0" width="76" height="76" filterUnits="userSpaceOnUse" color-interpolation-filters="sRGB">
<feFlood flood-opacity="0" result="BackgroundImageFix"/>
<feColorMatrix in="SourceAlpha" type="matrix" values="0 0 0 0 0 0 0 0 0 0 0 0 0 0 0 0 0 0 127 0" result="hardAlpha"/>
<feOffset dy="5"/>
<feGaussianBlur stdDeviation="10"/>
<feComposite in2="hardAlpha" operator="out"/>
<feColorMatrix type="matrix" values="0 0 0 0 0.247135 0 0 0 0 0.259458 0 0 0 0 0.270833 0 0 0 0.05 0"/>
<feBlend mode="normal" in2="BackgroundImageFix" result="effect1_dropShadow_1625_119754"/>
<feBlend mode="normal" in="SourceGraphic" in2="effect1_dropShadow_1625_119754" result="shape"/>
</filter>
</defs>
</svg>
