<svg width="76" height="76" viewBox="0 0 76 76" fill="none" xmlns="http://www.w3.org/2000/svg">
<g id="vk">
<g id="Rectangle 843" filter="url(#filter0_d_1625_119748)">
<rect x="20" y="15" width="36" height="36" rx="5" fill="white"/>
</g>
<path id="Vector" d="M38.8932 40C32.06 40 28.1624 35.1201 28 27H31.4229C31.5353 32.96 34.0587 35.4845 36.0575 36.005V27H39.2805V32.1401C41.2542 31.9189 43.3279 29.5766 44.0275 27H47.2505C46.9869 28.3363 46.4614 29.6015 45.7069 30.7166C44.9524 31.8317 43.9852 32.7726 42.8657 33.4805C44.1153 34.1273 45.2191 35.0428 46.1041 36.1666C46.9891 37.2904 47.6353 38.597 48 40H44.4522C44.1248 38.7814 43.4594 37.6905 42.5394 36.8641C41.6194 36.0376 40.4858 35.5125 39.2805 35.3544V40H38.8932Z" fill="#0177FF"/>
</g>
<defs>
<filter id="filter0_d_1625_119748" x="0" y="0" width="76" height="76" filterUnits="userSpaceOnUse" color-interpolation-filters="sRGB">
<feFlood flood-opacity="0" result="BackgroundImageFix"/>
<feColorMatrix in="SourceAlpha" type="matrix" values="0 0 0 0 0 0 0 0 0 0 0 0 0 0 0 0 0 0 127 0" result="hardAlpha"/>
<feOffset dy="5"/>
<feGaussianBlur stdDeviation="10"/>
<feComposite in2="hardAlpha" operator="out"/>
<feColorMatrix type="matrix" values="0 0 0 0 0.247135 0 0 0 0 0.259458 0 0 0 0 0.270833 0 0 0 0.05 0"/>
<feBlend mode="normal" in2="BackgroundImageFix" result="effect1_dropShadow_1625_119748"/>
<feBlend mode="normal" in="SourceGraphic" in2="effect1_dropShadow_1625_119748" result="shape"/>
</filter>
</defs>
</svg>
