<svg width="76" height="76" viewBox="0 0 76 76" fill="none" xmlns="http://www.w3.org/2000/svg">
<g id="WhatsApp">
<g id="Rectangle 846" filter="url(#filter0_d_1625_119761)">
<rect x="20" y="15" width="36" height="36" rx="5" fill="white"/>
</g>
<g id="Group 664">
<g id="Page-1">
<path fill-rule="evenodd" clip-rule="evenodd" d="M38.544 42.9197H38.5396C36.7897 42.9191 35.0702 42.48 33.5429 41.647L28 43.101L29.4834 37.6828C28.5684 36.097 28.0869 34.2983 28.0877 32.4554C28.09 26.6904 32.7806 22 38.5439 22C41.341 22.0012 43.9663 23.0901 45.9404 25.0665C47.9145 27.0429 49.0011 29.6699 49 32.4637C48.9977 38.2275 44.3089 42.9173 38.544 42.9197ZM33.7998 39.7538L34.1172 39.9422C35.4515 40.734 36.981 41.153 38.5405 41.1536H38.544C43.3341 41.1536 47.2327 37.2548 47.2346 32.4628C47.2355 30.1406 46.3324 27.9572 44.6916 26.3145C43.0508 24.6717 40.8687 23.7666 38.5474 23.7658C33.7537 23.7658 29.855 27.6641 29.8531 32.4558C29.8525 34.0979 30.3119 35.6972 31.1819 37.0808L31.3885 37.4097L30.5106 40.6167L33.7998 39.7538ZM43.4547 34.7149C43.6369 34.803 43.76 34.8625 43.8125 34.9502C43.8778 35.0591 43.8778 35.5822 43.6602 36.1926C43.4424 36.8029 42.3987 37.3598 41.8967 37.4348C41.4466 37.5021 40.877 37.5302 40.2511 37.3313C39.8717 37.2109 39.385 37.0502 38.7617 36.781C36.3124 35.7234 34.6572 33.3495 34.3444 32.9008C34.3225 32.8694 34.3072 32.8474 34.2986 32.836L34.2965 32.8332C34.1582 32.6487 33.2318 31.4126 33.2318 30.1333C33.2318 28.9299 33.8229 28.2991 34.0951 28.0087C34.1137 27.9889 34.1308 27.9706 34.1462 27.9538C34.3857 27.6922 34.6687 27.6268 34.8429 27.6268C35.017 27.6268 35.1914 27.6284 35.3436 27.6361C35.3624 27.637 35.3819 27.6369 35.4021 27.6368C35.5544 27.6359 35.7442 27.6348 35.9315 28.0846C36.0035 28.2577 36.1089 28.5143 36.2201 28.7849C36.4449 29.3323 36.6933 29.937 36.737 30.0245C36.8023 30.1553 36.8458 30.3078 36.7588 30.4822C36.7457 30.5084 36.7336 30.533 36.722 30.5566C36.6566 30.6902 36.6085 30.7884 36.4975 30.918C36.4538 30.969 36.4087 31.0239 36.3636 31.0789C36.2737 31.1883 36.1839 31.2978 36.1056 31.3758C35.9748 31.506 35.8386 31.6474 35.9911 31.9089C36.1435 32.1705 36.6678 33.026 37.4445 33.7188C38.2794 34.4635 39.005 34.7783 39.3728 34.9378C39.4446 34.969 39.5028 34.9942 39.5455 35.0156C39.8067 35.1464 39.9591 35.1245 40.1115 34.9502C40.2639 34.7758 40.7646 34.1873 40.9387 33.9258C41.1129 33.6643 41.2871 33.7078 41.5266 33.795C41.7661 33.8823 43.0506 34.5142 43.3118 34.645C43.3628 34.6705 43.4105 34.6936 43.4547 34.7149Z" fill="#0867D6"/>
<path fill-rule="evenodd" clip-rule="evenodd" d="M38.544 42.9197H38.5396C36.7897 42.9191 35.0702 42.48 33.5429 41.647L28 43.101L29.4834 37.6828C28.5684 36.097 28.0869 34.2983 28.0877 32.4554C28.09 26.6904 32.7806 22 38.5439 22C41.341 22.0012 43.9663 23.0901 45.9404 25.0665C47.9145 27.0429 49.0011 29.6699 49 32.4637C48.9977 38.2275 44.3089 42.9173 38.544 42.9197ZM33.7998 39.7538L34.1172 39.9422C35.4515 40.734 36.981 41.153 38.5405 41.1536H38.544C43.3341 41.1536 47.2327 37.2548 47.2346 32.4628C47.2355 30.1406 46.3324 27.9572 44.6916 26.3145C43.0508 24.6717 40.8687 23.7666 38.5474 23.7658C33.7537 23.7658 29.855 27.6641 29.8531 32.4558C29.8525 34.0979 30.3119 35.6972 31.1819 37.0808L31.3885 37.4097L30.5106 40.6167L33.7998 39.7538ZM43.4547 34.7149C43.6369 34.803 43.76 34.8625 43.8125 34.9502C43.8778 35.0591 43.8778 35.5822 43.6602 36.1926C43.4424 36.8029 42.3987 37.3598 41.8967 37.4348C41.4466 37.5021 40.877 37.5302 40.2511 37.3313C39.8717 37.2109 39.385 37.0502 38.7617 36.781C36.3124 35.7234 34.6572 33.3495 34.3444 32.9008C34.3225 32.8694 34.3072 32.8474 34.2986 32.836L34.2965 32.8332C34.1582 32.6487 33.2318 31.4126 33.2318 30.1333C33.2318 28.9299 33.8229 28.2991 34.0951 28.0087C34.1137 27.9889 34.1308 27.9706 34.1462 27.9538C34.3857 27.6922 34.6687 27.6268 34.8429 27.6268C35.017 27.6268 35.1914 27.6284 35.3436 27.6361C35.3624 27.637 35.3819 27.6369 35.4021 27.6368C35.5544 27.6359 35.7442 27.6348 35.9315 28.0846C36.0035 28.2577 36.1089 28.5143 36.2201 28.7849C36.4449 29.3323 36.6933 29.937 36.737 30.0245C36.8023 30.1553 36.8458 30.3078 36.7588 30.4822C36.7457 30.5084 36.7336 30.533 36.722 30.5566C36.6566 30.6902 36.6085 30.7884 36.4975 30.918C36.4538 30.969 36.4087 31.0239 36.3636 31.0789C36.2737 31.1883 36.1839 31.2978 36.1056 31.3758C35.9748 31.506 35.8386 31.6474 35.9911 31.9089C36.1435 32.1705 36.6678 33.026 37.4445 33.7188C38.2794 34.4635 39.005 34.7783 39.3728 34.9378C39.4446 34.969 39.5028 34.9942 39.5455 35.0156C39.8067 35.1464 39.9591 35.1245 40.1115 34.9502C40.2639 34.7758 40.7646 34.1873 40.9387 33.9258C41.1129 33.6643 41.2871 33.7078 41.5266 33.795C41.7661 33.8823 43.0506 34.5142 43.3118 34.645C43.3628 34.6705 43.4105 34.6936 43.4547 34.7149Z" fill="#0696E7"/>
<path fill-rule="evenodd" clip-rule="evenodd" d="M38.544 42.9197H38.5396C36.7897 42.9191 35.0702 42.48 33.5429 41.647L28 43.101L29.4834 37.6828C28.5684 36.097 28.0869 34.2983 28.0877 32.4554C28.09 26.6904 32.7806 22 38.5439 22C41.341 22.0012 43.9663 23.0901 45.9404 25.0665C47.9145 27.0429 49.0011 29.6699 49 32.4637C48.9977 38.2275 44.3089 42.9173 38.544 42.9197ZM33.7998 39.7538L34.1172 39.9422C35.4515 40.734 36.981 41.153 38.5405 41.1536H38.544C43.3341 41.1536 47.2327 37.2548 47.2346 32.4628C47.2355 30.1406 46.3324 27.9572 44.6916 26.3145C43.0508 24.6717 40.8687 23.7666 38.5474 23.7658C33.7537 23.7658 29.855 27.6641 29.8531 32.4558C29.8525 34.0979 30.3119 35.6972 31.1819 37.0808L31.3885 37.4097L30.5106 40.6167L33.7998 39.7538ZM43.4547 34.7149C43.6369 34.803 43.76 34.8625 43.8125 34.9502C43.8778 35.0591 43.8778 35.5822 43.6602 36.1926C43.4424 36.8029 42.3987 37.3598 41.8967 37.4348C41.4466 37.5021 40.877 37.5302 40.2511 37.3313C39.8717 37.2109 39.385 37.0502 38.7617 36.781C36.3124 35.7234 34.6572 33.3495 34.3444 32.9008C34.3225 32.8694 34.3072 32.8474 34.2986 32.836L34.2965 32.8332C34.1582 32.6487 33.2318 31.4126 33.2318 30.1333C33.2318 28.9299 33.8229 28.2991 34.0951 28.0087C34.1137 27.9889 34.1308 27.9706 34.1462 27.9538C34.3857 27.6922 34.6687 27.6268 34.8429 27.6268C35.017 27.6268 35.1914 27.6284 35.3436 27.6361C35.3624 27.637 35.3819 27.6369 35.4021 27.6368C35.5544 27.6359 35.7442 27.6348 35.9315 28.0846C36.0035 28.2577 36.1089 28.5143 36.2201 28.7849C36.4449 29.3323 36.6933 29.937 36.737 30.0245C36.8023 30.1553 36.8458 30.3078 36.7588 30.4822C36.7457 30.5084 36.7336 30.533 36.722 30.5566C36.6566 30.6902 36.6085 30.7884 36.4975 30.918C36.4538 30.969 36.4087 31.0239 36.3636 31.0789C36.2737 31.1883 36.1839 31.2978 36.1056 31.3758C35.9748 31.506 35.8386 31.6474 35.9911 31.9089C36.1435 32.1705 36.6678 33.026 37.4445 33.7188C38.2794 34.4635 39.005 34.7783 39.3728 34.9378C39.4446 34.969 39.5028 34.9942 39.5455 35.0156C39.8067 35.1464 39.9591 35.1245 40.1115 34.9502C40.2639 34.7758 40.7646 34.1873 40.9387 33.9258C41.1129 33.6643 41.2871 33.7078 41.5266 33.795C41.7661 33.8823 43.0506 34.5142 43.3118 34.645C43.3628 34.6705 43.4105 34.6936 43.4547 34.7149Z" fill="#25D366"/>
</g>
</g>
</g>
<defs>
<filter id="filter0_d_1625_119761" x="0" y="0" width="76" height="76" filterUnits="userSpaceOnUse" color-interpolation-filters="sRGB">
<feFlood flood-opacity="0" result="BackgroundImageFix"/>
<feColorMatrix in="SourceAlpha" type="matrix" values="0 0 0 0 0 0 0 0 0 0 0 0 0 0 0 0 0 0 127 0" result="hardAlpha"/>
<feOffset dy="5"/>
<feGaussianBlur stdDeviation="10"/>
<feComposite in2="hardAlpha" operator="out"/>
<feColorMatrix type="matrix" values="0 0 0 0 0.247135 0 0 0 0 0.259458 0 0 0 0 0.270833 0 0 0 0.05 0"/>
<feBlend mode="normal" in2="BackgroundImageFix" result="effect1_dropShadow_1625_119761"/>
<feBlend mode="normal" in="SourceGraphic" in2="effect1_dropShadow_1625_119761" result="shape"/>
</filter>
</defs>
</svg>
